<?xml version="1.0" encoding="utf-8" standalone="no"?>
<!DOCTYPE svg PUBLIC "-//W3C//DTD SVG 1.1//EN"
  "http://www.w3.org/Graphics/SVG/1.1/DTD/svg11.dtd">
<!-- Created with matplotlib (https://matplotlib.org/) -->
<svg height="733.68pt" version="1.1" viewBox="0 0 689.76 733.68" width="689.76pt" xmlns="http://www.w3.org/2000/svg" xmlns:xlink="http://www.w3.org/1999/xlink">
 <defs>
  <style type="text/css">
*{stroke-linecap:butt;stroke-linejoin:round;}
  </style>
 </defs>
 <g id="figure_1">
  <g id="patch_1">
   <path d="M 0 733.68 
L 689.76 733.68 
L 689.76 0 
L 0 0 
z
" style="fill:#ffffff;"/>
  </g>
  <g id="axes_1">
   <g id="patch_2">
    <path d="M 86.22 652.9752 
L 620.784 652.9752 
L 620.784 88.0416 
L 86.22 88.0416 
z
" style="fill:#ffffff;"/>
   </g>
   <g id="PathCollection_1">
    <defs>
     <path d="M 0 3 
C 0.795609 3 1.55874 2.683901 2.12132 2.12132 
C 2.683901 1.55874 3 0.795609 3 0 
C 3 -0.795609 2.683901 -1.55874 2.12132 -2.12132 
C 1.55874 -2.683901 0.795609 -3 0 -3 
C -0.795609 -3 -1.55874 -2.683901 -2.12132 -2.12132 
C -2.683901 -1.55874 -3 -0.795609 -3 0 
C -3 0.795609 -2.683901 1.55874 -2.12132 2.12132 
C -1.55874 2.683901 -0.795609 3 0 3 
z
" id="m4d667bdb52" style="stroke:#1f77b4;"/>
    </defs>
    <g clip-path="url(#p61dd93c376)">
     <use style="fill:#1f77b4;stroke:#1f77b4;" x="110.591824" xlink:href="#m4d667bdb52" y="159.25148"/>
     <use style="fill:#1f77b4;stroke:#1f77b4;" x="115.499101" xlink:href="#m4d667bdb52" y="178.430976"/>
     <use style="fill:#1f77b4;stroke:#1f77b4;" x="120.406377" xlink:href="#m4d667bdb52" y="196.734825"/>
     <use style="fill:#1f77b4;stroke:#1f77b4;" x="125.313653" xlink:href="#m4d667bdb52" y="214.247766"/>
     <use style="fill:#1f77b4;stroke:#1f77b4;" x="130.220929" xlink:href="#m4d667bdb52" y="230.969801"/>
     <use style="fill:#1f77b4;stroke:#1f77b4;" x="135.128206" xlink:href="#m4d667bdb52" y="246.957422"/>
     <use style="fill:#1f77b4;stroke:#1f77b4;" x="140.035482" xlink:href="#m4d667bdb52" y="262.210629"/>
     <use style="fill:#1f77b4;stroke:#1f77b4;" x="144.942758" xlink:href="#m4d667bdb52" y="276.785916"/>
     <use style="fill:#1f77b4;stroke:#1f77b4;" x="149.850035" xlink:href="#m4d667bdb52" y="290.711529"/>
     <use style="fill:#1f77b4;stroke:#1f77b4;" x="154.757311" xlink:href="#m4d667bdb52" y="304.015715"/>
     <use style="fill:#1f77b4;stroke:#1f77b4;" x="159.664587" xlink:href="#m4d667bdb52" y="316.726721"/>
     <use style="fill:#1f77b4;stroke:#1f77b4;" x="164.571863" xlink:href="#m4d667bdb52" y="328.872794"/>
     <use style="fill:#1f77b4;stroke:#1f77b4;" x="169.47914" xlink:href="#m4d667bdb52" y="340.482179"/>
     <use style="fill:#1f77b4;stroke:#1f77b4;" x="174.386416" xlink:href="#m4d667bdb52" y="351.554878"/>
     <use style="fill:#1f77b4;stroke:#1f77b4;" x="179.293692" xlink:href="#m4d667bdb52" y="362.119136"/>
     <use style="fill:#1f77b4;stroke:#1f77b4;" x="184.200969" xlink:href="#m4d667bdb52" y="372.203201"/>
     <use style="fill:#1f77b4;stroke:#1f77b4;" x="189.108245" xlink:href="#m4d667bdb52" y="381.863565"/>
     <use style="fill:#1f77b4;stroke:#1f77b4;" x="194.015521" xlink:href="#m4d667bdb52" y="391.071983"/>
     <use style="fill:#1f77b4;stroke:#1f77b4;" x="198.922797" xlink:href="#m4d667bdb52" y="399.856701"/>
     <use style="fill:#1f77b4;stroke:#1f77b4;" x="203.830074" xlink:href="#m4d667bdb52" y="408.245964"/>
     <use style="fill:#1f77b4;stroke:#1f77b4;" x="208.73735" xlink:href="#m4d667bdb52" y="416.268022"/>
     <use style="fill:#1f77b4;stroke:#1f77b4;" x="213.644626" xlink:href="#m4d667bdb52" y="423.894625"/>
     <use style="fill:#1f77b4;stroke:#1f77b4;" x="218.551902" xlink:href="#m4d667bdb52" y="431.210515"/>
     <use style="fill:#1f77b4;stroke:#1f77b4;" x="223.459179" xlink:href="#m4d667bdb52" y="438.159199"/>
     <use style="fill:#1f77b4;stroke:#1f77b4;" x="228.366455" xlink:href="#m4d667bdb52" y="444.797168"/>
     <use style="fill:#1f77b4;stroke:#1f77b4;" x="233.273731" xlink:href="#m4d667bdb52" y="451.152671"/>
     <use style="fill:#1f77b4;stroke:#1f77b4;" x="238.181008" xlink:href="#m4d667bdb52" y="457.169214"/>
     <use style="fill:#1f77b4;stroke:#1f77b4;" x="243.088284" xlink:href="#m4d667bdb52" y="462.931537"/>
     <use style="fill:#1f77b4;stroke:#1f77b4;" x="247.99556" xlink:href="#m4d667bdb52" y="468.411393"/>
     <use style="fill:#1f77b4;stroke:#1f77b4;" x="252.902836" xlink:href="#m4d667bdb52" y="473.637029"/>
     <use style="fill:#1f77b4;stroke:#1f77b4;" x="257.810113" xlink:href="#m4d667bdb52" y="478.580198"/>
     <use style="fill:#1f77b4;stroke:#1f77b4;" x="262.717389" xlink:href="#m4d667bdb52" y="483.297393"/>
     <use style="fill:#1f77b4;stroke:#1f77b4;" x="267.624665" xlink:href="#m4d667bdb52" y="487.788615"/>
     <use style="fill:#1f77b4;stroke:#1f77b4;" x="272.531941" xlink:href="#m4d667bdb52" y="492.025617"/>
     <use style="fill:#1f77b4;stroke:#1f77b4;" x="277.439218" xlink:href="#m4d667bdb52" y="496.064893"/>
     <use style="fill:#1f77b4;stroke:#1f77b4;" x="282.346494" xlink:href="#m4d667bdb52" y="499.906441"/>
     <use style="fill:#1f77b4;stroke:#1f77b4;" x="287.25377" xlink:href="#m4d667bdb52" y="503.578509"/>
     <use style="fill:#1f77b4;stroke:#1f77b4;" x="292.161047" xlink:href="#m4d667bdb52" y="507.052851"/>
     <use style="fill:#1f77b4;stroke:#1f77b4;" x="297.068323" xlink:href="#m4d667bdb52" y="510.357713"/>
     <use style="fill:#1f77b4;stroke:#1f77b4;" x="301.975599" xlink:href="#m4d667bdb52" y="513.521341"/>
     <use style="fill:#1f77b4;stroke:#1f77b4;" x="306.882875" xlink:href="#m4d667bdb52" y="516.543736"/>
     <use style="fill:#1f77b4;stroke:#1f77b4;" x="311.790152" xlink:href="#m4d667bdb52" y="519.39665"/>
     <use style="fill:#1f77b4;stroke:#1f77b4;" x="316.697428" xlink:href="#m4d667bdb52" y="522.136578"/>
     <use style="fill:#1f77b4;stroke:#1f77b4;" x="321.604704" xlink:href="#m4d667bdb52" y="524.735273"/>
     <use style="fill:#1f77b4;stroke:#1f77b4;" x="326.51198" xlink:href="#m4d667bdb52" y="527.249227"/>
     <use style="fill:#1f77b4;stroke:#1f77b4;" x="331.419257" xlink:href="#m4d667bdb52" y="529.650195"/>
     <use style="fill:#1f77b4;stroke:#1f77b4;" x="336.326533" xlink:href="#m4d667bdb52" y="531.938176"/>
     <use style="fill:#1f77b4;stroke:#1f77b4;" x="341.233809" xlink:href="#m4d667bdb52" y="534.197911"/>
     <use style="fill:#1f77b4;stroke:#1f77b4;" x="346.141086" xlink:href="#m4d667bdb52" y="536.401152"/>
     <use style="fill:#1f77b4;stroke:#1f77b4;" x="351.048362" xlink:href="#m4d667bdb52" y="538.576146"/>
     <use style="fill:#1f77b4;stroke:#1f77b4;" x="355.955638" xlink:href="#m4d667bdb52" y="540.722894"/>
     <use style="fill:#1f77b4;stroke:#1f77b4;" x="360.862914" xlink:href="#m4d667bdb52" y="542.926135"/>
     <use style="fill:#1f77b4;stroke:#1f77b4;" x="365.770191" xlink:href="#m4d667bdb52" y="545.129376"/>
     <use style="fill:#1f77b4;stroke:#1f77b4;" x="370.677467" xlink:href="#m4d667bdb52" y="547.360863"/>
     <use style="fill:#1f77b4;stroke:#1f77b4;" x="375.584743" xlink:href="#m4d667bdb52" y="549.677091"/>
     <use style="fill:#1f77b4;stroke:#1f77b4;" x="380.49202" xlink:href="#m4d667bdb52" y="552.049812"/>
     <use style="fill:#1f77b4;stroke:#1f77b4;" x="385.399296" xlink:href="#m4d667bdb52" y="554.507274"/>
     <use style="fill:#1f77b4;stroke:#1f77b4;" x="390.306572" xlink:href="#m4d667bdb52" y="557.049475"/>
     <use style="fill:#1f77b4;stroke:#1f77b4;" x="395.213848" xlink:href="#m4d667bdb52" y="559.732909"/>
     <use style="fill:#1f77b4;stroke:#1f77b4;" x="400.121125" xlink:href="#m4d667bdb52" y="562.501084"/>
     <use style="fill:#1f77b4;stroke:#1f77b4;" x="405.028401" xlink:href="#m4d667bdb52" y="565.410492"/>
     <use style="fill:#1f77b4;stroke:#1f77b4;" x="409.935677" xlink:href="#m4d667bdb52" y="568.48938"/>
     <use style="fill:#1f77b4;stroke:#1f77b4;" x="414.842953" xlink:href="#m4d667bdb52" y="571.765995"/>
     <use style="fill:#1f77b4;stroke:#1f77b4;" x="419.75023" xlink:href="#m4d667bdb52" y="575.268583"/>
     <use style="fill:#1f77b4;stroke:#1f77b4;" x="424.657506" xlink:href="#m4d667bdb52" y="579.110132"/>
     <use style="fill:#1f77b4;stroke:#1f77b4;" x="429.564782" xlink:href="#m4d667bdb52" y="583.460121"/>
     <use style="fill:#1f77b4;stroke:#1f77b4;" x="434.472059" xlink:href="#m4d667bdb52" y="588.770496"/>
     <use style="fill:#1f77b4;stroke:#1f77b4;" x="439.379335" xlink:href="#m4d667bdb52" y="597.41398"/>
     <use style="fill:#1f77b4;stroke:#1f77b4;" x="444.286611" xlink:href="#m4d667bdb52" y="618.42951"/>
     <use style="fill:#1f77b4;stroke:#1f77b4;" x="449.193887" xlink:href="#m4d667bdb52" y="616.875943"/>
     <use style="fill:#1f77b4;stroke:#1f77b4;" x="454.101164" xlink:href="#m4d667bdb52" y="615.237636"/>
     <use style="fill:#1f77b4;stroke:#1f77b4;" x="459.00844" xlink:href="#m4d667bdb52" y="613.627575"/>
     <use style="fill:#1f77b4;stroke:#1f77b4;" x="463.915716" xlink:href="#m4d667bdb52" y="612.045761"/>
     <use style="fill:#1f77b4;stroke:#1f77b4;" x="468.822992" xlink:href="#m4d667bdb52" y="610.633427"/>
     <use style="fill:#1f77b4;stroke:#1f77b4;" x="473.730269" xlink:href="#m4d667bdb52" y="609.334079"/>
     <use style="fill:#1f77b4;stroke:#1f77b4;" x="478.637545" xlink:href="#m4d667bdb52" y="608.232459"/>
     <use style="fill:#1f77b4;stroke:#1f77b4;" x="483.544821" xlink:href="#m4d667bdb52" y="607.243825"/>
     <use style="fill:#1f77b4;stroke:#1f77b4;" x="488.452098" xlink:href="#m4d667bdb52" y="606.396425"/>
     <use style="fill:#1f77b4;stroke:#1f77b4;" x="493.359374" xlink:href="#m4d667bdb52" y="605.633764"/>
     <use style="fill:#1f77b4;stroke:#1f77b4;" x="498.26665" xlink:href="#m4d667bdb52" y="604.927597"/>
     <use style="fill:#1f77b4;stroke:#1f77b4;" x="503.173926" xlink:href="#m4d667bdb52" y="604.277924"/>
     <use style="fill:#1f77b4;stroke:#1f77b4;" x="508.081203" xlink:href="#m4d667bdb52" y="603.656497"/>
     <use style="fill:#1f77b4;stroke:#1f77b4;" x="512.988479" xlink:href="#m4d667bdb52" y="603.006823"/>
     <use style="fill:#1f77b4;stroke:#1f77b4;" x="517.895755" xlink:href="#m4d667bdb52" y="602.357149"/>
     <use style="fill:#1f77b4;stroke:#1f77b4;" x="522.803031" xlink:href="#m4d667bdb52" y="601.650982"/>
     <use style="fill:#1f77b4;stroke:#1f77b4;" x="527.710308" xlink:href="#m4d667bdb52" y="600.916569"/>
     <use style="fill:#1f77b4;stroke:#1f77b4;" x="532.617584" xlink:href="#m4d667bdb52" y="600.125662"/>
     <use style="fill:#1f77b4;stroke:#1f77b4;" x="537.52486" xlink:href="#m4d667bdb52" y="599.334755"/>
     <use style="fill:#1f77b4;stroke:#1f77b4;" x="542.432137" xlink:href="#m4d667bdb52" y="598.487354"/>
     <use style="fill:#1f77b4;stroke:#1f77b4;" x="547.339413" xlink:href="#m4d667bdb52" y="597.668201"/>
     <use style="fill:#1f77b4;stroke:#1f77b4;" x="552.246689" xlink:href="#m4d667bdb52" y="596.849047"/>
     <use style="fill:#1f77b4;stroke:#1f77b4;" x="557.153965" xlink:href="#m4d667bdb52" y="596.086386"/>
     <use style="fill:#1f77b4;stroke:#1f77b4;" x="562.061242" xlink:href="#m4d667bdb52" y="595.323726"/>
     <use style="fill:#1f77b4;stroke:#1f77b4;" x="566.968518" xlink:href="#m4d667bdb52" y="594.617559"/>
     <use style="fill:#1f77b4;stroke:#1f77b4;" x="571.875794" xlink:href="#m4d667bdb52" y="593.939639"/>
     <use style="fill:#1f77b4;stroke:#1f77b4;" x="576.783071" xlink:href="#m4d667bdb52" y="593.289965"/>
     <use style="fill:#1f77b4;stroke:#1f77b4;" x="581.690347" xlink:href="#m4d667bdb52" y="592.668538"/>
     <use style="fill:#1f77b4;stroke:#1f77b4;" x="586.597623" xlink:href="#m4d667bdb52" y="592.103605"/>
     <use style="fill:#1f77b4;stroke:#1f77b4;" x="591.504899" xlink:href="#m4d667bdb52" y="591.566918"/>
     <use style="fill:#1f77b4;stroke:#1f77b4;" x="596.412176" xlink:href="#m4d667bdb52" y="591.058477"/>
    </g>
   </g>
   <g id="matplotlib.axis_1">
    <g id="xtick_1">
     <g id="line2d_1">
      <defs>
       <path d="M 0 0 
L 0 3.5 
" id="m7656b050b6" style="stroke:#000000;stroke-width:0.8;"/>
      </defs>
      <g>
       <use style="stroke:#000000;stroke-width:0.8;" x="110.591824" xlink:href="#m7656b050b6" y="652.9752"/>
      </g>
     </g>
     <g id="text_1">
      <!-- 5 -->
      <defs>
       <path d="M 10.796875 72.90625 
L 49.515625 72.90625 
L 49.515625 64.59375 
L 19.828125 64.59375 
L 19.828125 46.734375 
Q 21.96875 47.46875 24.109375 47.828125 
Q 26.265625 48.1875 28.421875 48.1875 
Q 40.625 48.1875 47.75 41.5 
Q 54.890625 34.8125 54.890625 23.390625 
Q 54.890625 11.625 47.5625 5.09375 
Q 40.234375 -1.421875 26.90625 -1.421875 
Q 22.3125 -1.421875 17.546875 -0.640625 
Q 12.796875 0.140625 7.71875 1.703125 
L 7.71875 11.625 
Q 12.109375 9.234375 16.796875 8.0625 
Q 21.484375 6.890625 26.703125 6.890625 
Q 35.15625 6.890625 40.078125 11.328125 
Q 45.015625 15.765625 45.015625 23.390625 
Q 45.015625 31 40.078125 35.4375 
Q 35.15625 39.890625 26.703125 39.890625 
Q 22.75 39.890625 18.8125 39.015625 
Q 14.890625 38.140625 10.796875 36.28125 
z
" id="DejaVuSans-53"/>
      </defs>
      <g transform="translate(107.410574 667.573637)scale(0.1 -0.1)">
       <use xlink:href="#DejaVuSans-53"/>
      </g>
     </g>
    </g>
    <g id="xtick_2">
     <g id="line2d_2">
      <g>
       <use style="stroke:#000000;stroke-width:0.8;" x="171.319368" xlink:href="#m7656b050b6" y="652.9752"/>
      </g>
     </g>
     <g id="text_2">
      <!-- 10 -->
      <defs>
       <path d="M 12.40625 8.296875 
L 28.515625 8.296875 
L 28.515625 63.921875 
L 10.984375 60.40625 
L 10.984375 69.390625 
L 28.421875 72.90625 
L 38.28125 72.90625 
L 38.28125 8.296875 
L 54.390625 8.296875 
L 54.390625 0 
L 12.40625 0 
z
" id="DejaVuSans-49"/>
       <path d="M 31.78125 66.40625 
Q 24.171875 66.40625 20.328125 58.90625 
Q 16.5 51.421875 16.5 36.375 
Q 16.5 21.390625 20.328125 13.890625 
Q 24.171875 6.390625 31.78125 6.390625 
Q 39.453125 6.390625 43.28125 13.890625 
Q 47.125 21.390625 47.125 36.375 
Q 47.125 51.421875 43.28125 58.90625 
Q 39.453125 66.40625 31.78125 66.40625 
z
M 31.78125 74.21875 
Q 44.046875 74.21875 50.515625 64.515625 
Q 56.984375 54.828125 56.984375 36.375 
Q 56.984375 17.96875 50.515625 8.265625 
Q 44.046875 -1.421875 31.78125 -1.421875 
Q 19.53125 -1.421875 13.0625 8.265625 
Q 6.59375 17.96875 6.59375 36.375 
Q 6.59375 54.828125 13.0625 64.515625 
Q 19.53125 74.21875 31.78125 74.21875 
z
" id="DejaVuSans-48"/>
      </defs>
      <g transform="translate(164.956868 667.573637)scale(0.1 -0.1)">
       <use xlink:href="#DejaVuSans-49"/>
       <use x="63.623047" xlink:href="#DejaVuSans-48"/>
      </g>
     </g>
    </g>
    <g id="xtick_3">
     <g id="line2d_3">
      <g>
       <use style="stroke:#000000;stroke-width:0.8;" x="232.046912" xlink:href="#m7656b050b6" y="652.9752"/>
      </g>
     </g>
     <g id="text_3">
      <!-- 15 -->
      <g transform="translate(225.684412 667.573637)scale(0.1 -0.1)">
       <use xlink:href="#DejaVuSans-49"/>
       <use x="63.623047" xlink:href="#DejaVuSans-53"/>
      </g>
     </g>
    </g>
    <g id="xtick_4">
     <g id="line2d_4">
      <g>
       <use style="stroke:#000000;stroke-width:0.8;" x="292.774456" xlink:href="#m7656b050b6" y="652.9752"/>
      </g>
     </g>
     <g id="text_4">
      <!-- 20 -->
      <defs>
       <path d="M 19.1875 8.296875 
L 53.609375 8.296875 
L 53.609375 0 
L 7.328125 0 
L 7.328125 8.296875 
Q 12.9375 14.109375 22.625 23.890625 
Q 32.328125 33.6875 34.8125 36.53125 
Q 39.546875 41.84375 41.421875 45.53125 
Q 43.3125 49.21875 43.3125 52.78125 
Q 43.3125 58.59375 39.234375 62.25 
Q 35.15625 65.921875 28.609375 65.921875 
Q 23.96875 65.921875 18.8125 64.3125 
Q 13.671875 62.703125 7.8125 59.421875 
L 7.8125 69.390625 
Q 13.765625 71.78125 18.9375 73 
Q 24.125 74.21875 28.421875 74.21875 
Q 39.75 74.21875 46.484375 68.546875 
Q 53.21875 62.890625 53.21875 53.421875 
Q 53.21875 48.921875 51.53125 44.890625 
Q 49.859375 40.875 45.40625 35.40625 
Q 44.1875 33.984375 37.640625 27.21875 
Q 31.109375 20.453125 19.1875 8.296875 
z
" id="DejaVuSans-50"/>
      </defs>
      <g transform="translate(286.411956 667.573637)scale(0.1 -0.1)">
       <use xlink:href="#DejaVuSans-50"/>
       <use x="63.623047" xlink:href="#DejaVuSans-48"/>
      </g>
     </g>
    </g>
    <g id="xtick_5">
     <g id="line2d_5">
      <g>
       <use style="stroke:#000000;stroke-width:0.8;" x="353.502" xlink:href="#m7656b050b6" y="652.9752"/>
      </g>
     </g>
     <g id="text_5">
      <!-- 25 -->
      <g transform="translate(347.1395 667.573637)scale(0.1 -0.1)">
       <use xlink:href="#DejaVuSans-50"/>
       <use x="63.623047" xlink:href="#DejaVuSans-53"/>
      </g>
     </g>
    </g>
    <g id="xtick_6">
     <g id="line2d_6">
      <g>
       <use style="stroke:#000000;stroke-width:0.8;" x="414.229544" xlink:href="#m7656b050b6" y="652.9752"/>
      </g>
     </g>
     <g id="text_6">
      <!-- 30 -->
      <defs>
       <path d="M 40.578125 39.3125 
Q 47.65625 37.796875 51.625 33 
Q 55.609375 28.21875 55.609375 21.1875 
Q 55.609375 10.40625 48.1875 4.484375 
Q 40.765625 -1.421875 27.09375 -1.421875 
Q 22.515625 -1.421875 17.65625 -0.515625 
Q 12.796875 0.390625 7.625 2.203125 
L 7.625 11.71875 
Q 11.71875 9.328125 16.59375 8.109375 
Q 21.484375 6.890625 26.8125 6.890625 
Q 36.078125 6.890625 40.9375 10.546875 
Q 45.796875 14.203125 45.796875 21.1875 
Q 45.796875 27.640625 41.28125 31.265625 
Q 36.765625 34.90625 28.71875 34.90625 
L 20.21875 34.90625 
L 20.21875 43.015625 
L 29.109375 43.015625 
Q 36.375 43.015625 40.234375 45.921875 
Q 44.09375 48.828125 44.09375 54.296875 
Q 44.09375 59.90625 40.109375 62.90625 
Q 36.140625 65.921875 28.71875 65.921875 
Q 24.65625 65.921875 20.015625 65.03125 
Q 15.375 64.15625 9.8125 62.3125 
L 9.8125 71.09375 
Q 15.4375 72.65625 20.34375 73.4375 
Q 25.25 74.21875 29.59375 74.21875 
Q 40.828125 74.21875 47.359375 69.109375 
Q 53.90625 64.015625 53.90625 55.328125 
Q 53.90625 49.265625 50.4375 45.09375 
Q 46.96875 40.921875 40.578125 39.3125 
z
" id="DejaVuSans-51"/>
      </defs>
      <g transform="translate(407.867044 667.573637)scale(0.1 -0.1)">
       <use xlink:href="#DejaVuSans-51"/>
       <use x="63.623047" xlink:href="#DejaVuSans-48"/>
      </g>
     </g>
    </g>
    <g id="xtick_7">
     <g id="line2d_7">
      <g>
       <use style="stroke:#000000;stroke-width:0.8;" x="474.957088" xlink:href="#m7656b050b6" y="652.9752"/>
      </g>
     </g>
     <g id="text_7">
      <!-- 35 -->
      <g transform="translate(468.594588 667.573637)scale(0.1 -0.1)">
       <use xlink:href="#DejaVuSans-51"/>
       <use x="63.623047" xlink:href="#DejaVuSans-53"/>
      </g>
     </g>
    </g>
    <g id="xtick_8">
     <g id="line2d_8">
      <g>
       <use style="stroke:#000000;stroke-width:0.8;" x="535.684632" xlink:href="#m7656b050b6" y="652.9752"/>
      </g>
     </g>
     <g id="text_8">
      <!-- 40 -->
      <defs>
       <path d="M 37.796875 64.3125 
L 12.890625 25.390625 
L 37.796875 25.390625 
z
M 35.203125 72.90625 
L 47.609375 72.90625 
L 47.609375 25.390625 
L 58.015625 25.390625 
L 58.015625 17.1875 
L 47.609375 17.1875 
L 47.609375 0 
L 37.796875 0 
L 37.796875 17.1875 
L 4.890625 17.1875 
L 4.890625 26.703125 
z
" id="DejaVuSans-52"/>
      </defs>
      <g transform="translate(529.322132 667.573637)scale(0.1 -0.1)">
       <use xlink:href="#DejaVuSans-52"/>
       <use x="63.623047" xlink:href="#DejaVuSans-48"/>
      </g>
     </g>
    </g>
    <g id="xtick_9">
     <g id="line2d_9">
      <g>
       <use style="stroke:#000000;stroke-width:0.8;" x="596.412176" xlink:href="#m7656b050b6" y="652.9752"/>
      </g>
     </g>
     <g id="text_9">
      <!-- 45 -->
      <g transform="translate(590.049676 667.573637)scale(0.1 -0.1)">
       <use xlink:href="#DejaVuSans-52"/>
       <use x="63.623047" xlink:href="#DejaVuSans-53"/>
      </g>
     </g>
    </g>
    <g id="text_10">
     <!-- T (°C) -->
     <defs>
      <path d="M -0.296875 72.90625 
L 61.375 72.90625 
L 61.375 64.59375 
L 35.5 64.59375 
L 35.5 0 
L 25.59375 0 
L 25.59375 64.59375 
L -0.296875 64.59375 
z
" id="DejaVuSans-84"/>
      <path id="DejaVuSans-32"/>
      <path d="M 31 75.875 
Q 24.46875 64.65625 21.28125 53.65625 
Q 18.109375 42.671875 18.109375 31.390625 
Q 18.109375 20.125 21.3125 9.0625 
Q 24.515625 -2 31 -13.1875 
L 23.1875 -13.1875 
Q 15.875 -1.703125 12.234375 9.375 
Q 8.59375 20.453125 8.59375 31.390625 
Q 8.59375 42.28125 12.203125 53.3125 
Q 15.828125 64.359375 23.1875 75.875 
z
" id="DejaVuSans-40"/>
      <path d="M 25 67.921875 
Q 21.09375 67.921875 18.40625 65.203125 
Q 15.71875 62.5 15.71875 58.59375 
Q 15.71875 54.734375 18.40625 52.078125 
Q 21.09375 49.421875 25 49.421875 
Q 28.90625 49.421875 31.59375 52.078125 
Q 34.28125 54.734375 34.28125 58.59375 
Q 34.28125 62.453125 31.5625 65.1875 
Q 28.859375 67.921875 25 67.921875 
z
M 25 74.21875 
Q 28.125 74.21875 31 73.015625 
Q 33.890625 71.828125 35.984375 69.578125 
Q 38.234375 67.390625 39.359375 64.59375 
Q 40.484375 61.8125 40.484375 58.59375 
Q 40.484375 52.15625 35.96875 47.6875 
Q 31.453125 43.21875 24.90625 43.21875 
Q 18.3125 43.21875 13.90625 47.609375 
Q 9.515625 52 9.515625 58.59375 
Q 9.515625 65.140625 14 69.671875 
Q 18.5 74.21875 25 74.21875 
z
" id="DejaVuSans-176"/>
      <path d="M 64.40625 67.28125 
L 64.40625 56.890625 
Q 59.421875 61.53125 53.78125 63.8125 
Q 48.140625 66.109375 41.796875 66.109375 
Q 29.296875 66.109375 22.65625 58.46875 
Q 16.015625 50.828125 16.015625 36.375 
Q 16.015625 21.96875 22.65625 14.328125 
Q 29.296875 6.6875 41.796875 6.6875 
Q 48.140625 6.6875 53.78125 8.984375 
Q 59.421875 11.28125 64.40625 15.921875 
L 64.40625 5.609375 
Q 59.234375 2.09375 53.4375 0.328125 
Q 47.65625 -1.421875 41.21875 -1.421875 
Q 24.65625 -1.421875 15.125 8.703125 
Q 5.609375 18.84375 5.609375 36.375 
Q 5.609375 53.953125 15.125 64.078125 
Q 24.65625 74.21875 41.21875 74.21875 
Q 47.75 74.21875 53.53125 72.484375 
Q 59.328125 70.75 64.40625 67.28125 
z
" id="DejaVuSans-67"/>
      <path d="M 8.015625 75.875 
L 15.828125 75.875 
Q 23.140625 64.359375 26.78125 53.3125 
Q 30.421875 42.28125 30.421875 31.390625 
Q 30.421875 20.453125 26.78125 9.375 
Q 23.140625 -1.703125 15.828125 -13.1875 
L 8.015625 -13.1875 
Q 14.5 -2 17.703125 9.0625 
Q 20.90625 20.125 20.90625 31.390625 
Q 20.90625 42.671875 17.703125 53.65625 
Q 14.5 64.65625 8.015625 75.875 
z
" id="DejaVuSans-41"/>
     </defs>
     <g transform="translate(338.966062 681.251762)scale(0.1 -0.1)">
      <use xlink:href="#DejaVuSans-84"/>
      <use x="61.083984" xlink:href="#DejaVuSans-32"/>
      <use x="92.871094" xlink:href="#DejaVuSans-40"/>
      <use x="131.884766" xlink:href="#DejaVuSans-176"/>
      <use x="181.884766" xlink:href="#DejaVuSans-67"/>
      <use x="251.708984" xlink:href="#DejaVuSans-41"/>
     </g>
    </g>
   </g>
   <g id="matplotlib.axis_2">
    <g id="ytick_1">
     <g id="line2d_10">
      <defs>
       <path d="M 0 0 
L -3.5 0 
" id="m71c973ebb9" style="stroke:#000000;stroke-width:0.8;"/>
      </defs>
      <g>
       <use style="stroke:#000000;stroke-width:0.8;" x="86.22" xlink:href="#m71c973ebb9" y="652.9752"/>
      </g>
     </g>
     <g id="text_11">
      <!-- 0.0 -->
      <defs>
       <path d="M 10.6875 12.40625 
L 21 12.40625 
L 21 0 
L 10.6875 0 
z
" id="DejaVuSans-46"/>
      </defs>
      <g transform="translate(63.316875 656.774419)scale(0.1 -0.1)">
       <use xlink:href="#DejaVuSans-48"/>
       <use x="63.623047" xlink:href="#DejaVuSans-46"/>
       <use x="95.410156" xlink:href="#DejaVuSans-48"/>
      </g>
     </g>
    </g>
    <g id="ytick_2">
     <g id="line2d_11">
      <g>
       <use style="stroke:#000000;stroke-width:0.8;" x="86.22" xlink:href="#m71c973ebb9" y="582.3585"/>
      </g>
     </g>
     <g id="text_12">
      <!-- 2.5 -->
      <g transform="translate(63.316875 586.157719)scale(0.1 -0.1)">
       <use xlink:href="#DejaVuSans-50"/>
       <use x="63.623047" xlink:href="#DejaVuSans-46"/>
       <use x="95.410156" xlink:href="#DejaVuSans-53"/>
      </g>
     </g>
    </g>
    <g id="ytick_3">
     <g id="line2d_12">
      <g>
       <use style="stroke:#000000;stroke-width:0.8;" x="86.22" xlink:href="#m71c973ebb9" y="511.7418"/>
      </g>
     </g>
     <g id="text_13">
      <!-- 5.0 -->
      <g transform="translate(63.316875 515.541019)scale(0.1 -0.1)">
       <use xlink:href="#DejaVuSans-53"/>
       <use x="63.623047" xlink:href="#DejaVuSans-46"/>
       <use x="95.410156" xlink:href="#DejaVuSans-48"/>
      </g>
     </g>
    </g>
    <g id="ytick_4">
     <g id="line2d_13">
      <g>
       <use style="stroke:#000000;stroke-width:0.8;" x="86.22" xlink:href="#m71c973ebb9" y="441.1251"/>
      </g>
     </g>
     <g id="text_14">
      <!-- 7.5 -->
      <defs>
       <path d="M 8.203125 72.90625 
L 55.078125 72.90625 
L 55.078125 68.703125 
L 28.609375 0 
L 18.3125 0 
L 43.21875 64.59375 
L 8.203125 64.59375 
z
" id="DejaVuSans-55"/>
      </defs>
      <g transform="translate(63.316875 444.924319)scale(0.1 -0.1)">
       <use xlink:href="#DejaVuSans-55"/>
       <use x="63.623047" xlink:href="#DejaVuSans-46"/>
       <use x="95.410156" xlink:href="#DejaVuSans-53"/>
      </g>
     </g>
    </g>
    <g id="ytick_5">
     <g id="line2d_14">
      <g>
       <use style="stroke:#000000;stroke-width:0.8;" x="86.22" xlink:href="#m71c973ebb9" y="370.5084"/>
      </g>
     </g>
     <g id="text_15">
      <!-- 10.0 -->
      <g transform="translate(56.954375 374.307619)scale(0.1 -0.1)">
       <use xlink:href="#DejaVuSans-49"/>
       <use x="63.623047" xlink:href="#DejaVuSans-48"/>
       <use x="127.246094" xlink:href="#DejaVuSans-46"/>
       <use x="159.033203" xlink:href="#DejaVuSans-48"/>
      </g>
     </g>
    </g>
    <g id="ytick_6">
     <g id="line2d_15">
      <g>
       <use style="stroke:#000000;stroke-width:0.8;" x="86.22" xlink:href="#m71c973ebb9" y="299.8917"/>
      </g>
     </g>
     <g id="text_16">
      <!-- 12.5 -->
      <g transform="translate(56.954375 303.690919)scale(0.1 -0.1)">
       <use xlink:href="#DejaVuSans-49"/>
       <use x="63.623047" xlink:href="#DejaVuSans-50"/>
       <use x="127.246094" xlink:href="#DejaVuSans-46"/>
       <use x="159.033203" xlink:href="#DejaVuSans-53"/>
      </g>
     </g>
    </g>
    <g id="ytick_7">
     <g id="line2d_16">
      <g>
       <use style="stroke:#000000;stroke-width:0.8;" x="86.22" xlink:href="#m71c973ebb9" y="229.275"/>
      </g>
     </g>
     <g id="text_17">
      <!-- 15.0 -->
      <g transform="translate(56.954375 233.074219)scale(0.1 -0.1)">
       <use xlink:href="#DejaVuSans-49"/>
       <use x="63.623047" xlink:href="#DejaVuSans-53"/>
       <use x="127.246094" xlink:href="#DejaVuSans-46"/>
       <use x="159.033203" xlink:href="#DejaVuSans-48"/>
      </g>
     </g>
    </g>
    <g id="ytick_8">
     <g id="line2d_17">
      <g>
       <use style="stroke:#000000;stroke-width:0.8;" x="86.22" xlink:href="#m71c973ebb9" y="158.6583"/>
      </g>
     </g>
     <g id="text_18">
      <!-- 17.5 -->
      <g transform="translate(56.954375 162.457519)scale(0.1 -0.1)">
       <use xlink:href="#DejaVuSans-49"/>
       <use x="63.623047" xlink:href="#DejaVuSans-55"/>
       <use x="127.246094" xlink:href="#DejaVuSans-46"/>
       <use x="159.033203" xlink:href="#DejaVuSans-53"/>
      </g>
     </g>
    </g>
    <g id="ytick_9">
     <g id="line2d_18">
      <g>
       <use style="stroke:#000000;stroke-width:0.8;" x="86.22" xlink:href="#m71c973ebb9" y="88.0416"/>
      </g>
     </g>
     <g id="text_19">
      <!-- 20.0 -->
      <g transform="translate(56.954375 91.840819)scale(0.1 -0.1)">
       <use xlink:href="#DejaVuSans-50"/>
       <use x="63.623047" xlink:href="#DejaVuSans-48"/>
       <use x="127.246094" xlink:href="#DejaVuSans-46"/>
       <use x="159.033203" xlink:href="#DejaVuSans-48"/>
      </g>
     </g>
    </g>
    <g id="text_20">
     <!-- t (ms) -->
     <defs>
      <path d="M 18.3125 70.21875 
L 18.3125 54.6875 
L 36.8125 54.6875 
L 36.8125 47.703125 
L 18.3125 47.703125 
L 18.3125 18.015625 
Q 18.3125 11.328125 20.140625 9.421875 
Q 21.96875 7.515625 27.59375 7.515625 
L 36.8125 7.515625 
L 36.8125 0 
L 27.59375 0 
Q 17.1875 0 13.234375 3.875 
Q 9.28125 7.765625 9.28125 18.015625 
L 9.28125 47.703125 
L 2.6875 47.703125 
L 2.6875 54.6875 
L 9.28125 54.6875 
L 9.28125 70.21875 
z
" id="DejaVuSans-116"/>
      <path d="M 52 44.1875 
Q 55.375 50.25 60.0625 53.125 
Q 64.75 56 71.09375 56 
Q 79.640625 56 84.28125 50.015625 
Q 88.921875 44.046875 88.921875 33.015625 
L 88.921875 0 
L 79.890625 0 
L 79.890625 32.71875 
Q 79.890625 40.578125 77.09375 44.375 
Q 74.3125 48.1875 68.609375 48.1875 
Q 61.625 48.1875 57.5625 43.546875 
Q 53.515625 38.921875 53.515625 30.90625 
L 53.515625 0 
L 44.484375 0 
L 44.484375 32.71875 
Q 44.484375 40.625 41.703125 44.40625 
Q 38.921875 48.1875 33.109375 48.1875 
Q 26.21875 48.1875 22.15625 43.53125 
Q 18.109375 38.875 18.109375 30.90625 
L 18.109375 0 
L 9.078125 0 
L 9.078125 54.6875 
L 18.109375 54.6875 
L 18.109375 46.1875 
Q 21.1875 51.21875 25.484375 53.609375 
Q 29.78125 56 35.6875 56 
Q 41.65625 56 45.828125 52.96875 
Q 50 49.953125 52 44.1875 
z
" id="DejaVuSans-109"/>
      <path d="M 44.28125 53.078125 
L 44.28125 44.578125 
Q 40.484375 46.53125 36.375 47.5 
Q 32.28125 48.484375 27.875 48.484375 
Q 21.1875 48.484375 17.84375 46.4375 
Q 14.5 44.390625 14.5 40.28125 
Q 14.5 37.15625 16.890625 35.375 
Q 19.28125 33.59375 26.515625 31.984375 
L 29.59375 31.296875 
Q 39.15625 29.25 43.1875 25.515625 
Q 47.21875 21.78125 47.21875 15.09375 
Q 47.21875 7.46875 41.1875 3.015625 
Q 35.15625 -1.421875 24.609375 -1.421875 
Q 20.21875 -1.421875 15.453125 -0.5625 
Q 10.6875 0.296875 5.421875 2 
L 5.421875 11.28125 
Q 10.40625 8.6875 15.234375 7.390625 
Q 20.0625 6.109375 24.8125 6.109375 
Q 31.15625 6.109375 34.5625 8.28125 
Q 37.984375 10.453125 37.984375 14.40625 
Q 37.984375 18.0625 35.515625 20.015625 
Q 33.0625 21.96875 24.703125 23.78125 
L 21.578125 24.515625 
Q 13.234375 26.265625 9.515625 29.90625 
Q 5.8125 33.546875 5.8125 39.890625 
Q 5.8125 47.609375 11.28125 51.796875 
Q 16.75 56 26.8125 56 
Q 31.78125 56 36.171875 55.265625 
Q 40.578125 54.546875 44.28125 53.078125 
z
" id="DejaVuSans-115"/>
     </defs>
     <g transform="translate(50.874687 385.434181)rotate(-90)scale(0.1 -0.1)">
      <use xlink:href="#DejaVuSans-116"/>
      <use x="39.208984" xlink:href="#DejaVuSans-32"/>
      <use x="70.996094" xlink:href="#DejaVuSans-40"/>
      <use x="110.009766" xlink:href="#DejaVuSans-109"/>
      <use x="207.421875" xlink:href="#DejaVuSans-115"/>
      <use x="259.521484" xlink:href="#DejaVuSans-41"/>
     </g>
    </g>
   </g>
   <g id="line2d_19">
    <path clip-path="url(#p61dd93c376)" d="M 110.591824 196.387331 
L 115.499101 208.458497 
L 120.406377 220.331624 
L 125.313653 232.006715 
L 130.220929 243.483769 
L 135.128206 254.762785 
L 140.035482 265.843764 
L 144.942758 276.726706 
L 149.850035 287.411611 
L 154.757311 297.898478 
L 159.664587 308.187309 
L 164.571863 318.278102 
L 169.47914 328.170858 
L 174.386416 337.865577 
L 179.293692 347.362259 
L 184.200969 356.660903 
L 189.108245 365.76151 
L 194.015521 374.66408 
L 198.922797 383.368613 
L 203.830074 391.875109 
L 208.73735 400.183568 
L 213.644626 408.293989 
L 218.551902 416.206373 
L 223.459179 423.92072 
L 228.366455 431.43703 
L 233.273731 438.755302 
L 238.181008 445.875538 
L 243.088284 452.797736 
L 247.99556 459.521897 
L 252.902836 466.048021 
L 257.810113 472.376108 
L 262.717389 478.506157 
L 267.624665 484.438169 
L 272.531941 490.172144 
L 277.439218 495.708082 
L 282.346494 501.045983 
L 287.25377 506.185847 
L 292.161047 511.127673 
L 297.068323 515.871462 
L 301.975599 520.417214 
L 306.882875 524.764929 
L 311.790152 528.914606 
L 316.697428 532.866247 
L 321.604704 536.61985 
L 326.51198 540.175416 
L 331.419257 543.532945 
L 336.326533 546.692437 
L 341.233809 549.653891 
L 346.141086 552.417308 
L 351.048362 554.982688 
L 355.955638 557.350031 
L 360.862914 559.519337 
L 365.770191 561.490606 
L 370.677467 563.263837 
L 375.584743 564.839031 
L 380.49202 566.216188 
L 385.399296 567.395308 
L 390.306572 568.376391 
L 395.213848 569.159436 
L 400.121125 569.744444 
L 405.028401 570.131415 
L 409.935677 570.320349 
L 414.842953 570.311246 
L 419.75023 570.104105 
L 424.657506 569.698928 
L 429.564782 569.095713 
L 434.472059 568.294461 
L 439.379335 567.295171 
L 444.286611 566.097845 
L 449.193887 564.702481 
L 454.101164 563.10908 
L 459.00844 561.317642 
L 463.915716 559.328167 
L 468.822992 557.140655 
L 473.730269 554.755105 
L 478.637545 552.171518 
L 483.544821 549.389894 
L 488.452098 546.410233 
L 493.359374 543.232535 
L 498.26665 539.8568 
L 503.173926 536.283027 
L 508.081203 532.511217 
L 512.988479 528.54137 
L 517.895755 524.373486 
L 522.803031 520.007564 
L 527.710308 515.443606 
L 532.617584 510.68161 
L 537.52486 505.721577 
L 542.432137 500.563506 
L 547.339413 495.207399 
L 552.246689 489.653255 
L 557.153965 483.901073 
L 562.061242 477.950854 
L 566.968518 471.802598 
L 571.875794 465.456304 
L 576.783071 458.911974 
L 581.690347 452.169606 
L 586.597623 445.229201 
L 591.504899 438.090759 
L 596.412176 430.75428 
" style="fill:none;stroke:#008000;stroke-dasharray:9.6,2.4,1.5,2.4;stroke-dashoffset:0;stroke-width:1.5;"/>
   </g>
   <g id="line2d_20">
    <path clip-path="url(#p61dd93c376)" d="M 110.591824 160.641507 
L 115.499101 179.020759 
L 120.406377 196.731221 
L 125.313653 213.787158 
L 130.220929 230.202836 
L 135.128206 245.992519 
L 140.035482 261.170473 
L 144.942758 275.750964 
L 149.850035 289.748256 
L 154.757311 303.176615 
L 159.664587 316.050306 
L 164.571863 328.383594 
L 169.47914 340.190744 
L 174.386416 351.486023 
L 179.293692 362.283694 
L 184.200969 372.598023 
L 189.108245 382.443275 
L 194.015521 391.833716 
L 198.922797 400.783611 
L 203.830074 409.307225 
L 208.73735 417.418824 
L 213.644626 425.132671 
L 218.551902 432.463034 
L 223.459179 439.424177 
L 228.366455 446.030364 
L 233.273731 452.295863 
L 238.181008 458.234937 
L 243.088284 463.861852 
L 247.99556 469.190873 
L 252.902836 474.236265 
L 257.810113 479.012294 
L 262.717389 483.533226 
L 267.624665 487.813324 
L 272.531941 491.866854 
L 277.439218 495.708082 
L 282.346494 499.351273 
L 287.25377 502.810692 
L 292.161047 506.100604 
L 297.068323 509.235275 
L 301.975599 512.22897 
L 306.882875 515.095953 
L 311.790152 517.850491 
L 316.697428 520.506848 
L 321.604704 523.07929 
L 326.51198 525.582081 
L 331.419257 528.029488 
L 336.326533 530.435776 
L 341.233809 532.815209 
L 346.141086 535.182052 
L 351.048362 537.550572 
L 355.955638 539.935033 
L 360.862914 542.349701 
L 365.770191 544.808841 
L 370.677467 547.326717 
L 375.584743 549.917596 
L 380.49202 552.595742 
L 385.399296 555.375422 
L 390.306572 558.270899 
L 395.213848 561.296439 
L 400.121125 564.466308 
L 405.028401 567.79477 
L 409.935677 571.296091 
L 414.842953 574.984536 
L 419.75023 578.874371 
L 424.657506 582.979861 
L 429.564782 587.31527 
L 434.472059 591.894864 
L 439.379335 596.732909 
L 444.286611 601.843669 
L 449.193887 607.24141 
L 454.101164 612.940397 
L 459.00844 618.954895 
L 463.915716 625.299169 
L 468.822992 631.987486 
L 473.730269 639.034109 
L 478.637545 646.453305 
L 483.544821 654.259337 
L 488.452098 662.466473 
L 493.359374 671.088976 
L 498.26665 680.141113 
L 503.173926 689.637148 
L 508.081203 699.591346 
L 512.988479 710.017974 
L 517.895755 720.931295 
L 522.803031 732.345576 
L 523.763311 734.68 
" style="fill:none;stroke:#000000;stroke-dasharray:9.6,2.4,1.5,2.4;stroke-dashoffset:0;stroke-width:1.5;"/>
   </g>
   <g id="line2d_21">
    <path clip-path="url(#p61dd93c376)" d="M 449.193887 652.9752 
L 449.193887 88.0416 
" style="fill:none;stroke:#ff0000;stroke-dasharray:1.5,2.475;stroke-dashoffset:0;stroke-width:1.5;"/>
   </g>
   <g id="patch_3">
    <path d="M 86.22 652.9752 
L 86.22 88.0416 
" style="fill:none;stroke:#000000;stroke-linecap:square;stroke-linejoin:miter;stroke-width:0.8;"/>
   </g>
   <g id="patch_4">
    <path d="M 620.784 652.9752 
L 620.784 88.0416 
" style="fill:none;stroke:#000000;stroke-linecap:square;stroke-linejoin:miter;stroke-width:0.8;"/>
   </g>
   <g id="patch_5">
    <path d="M 86.22 652.9752 
L 620.784 652.9752 
" style="fill:none;stroke:#000000;stroke-linecap:square;stroke-linejoin:miter;stroke-width:0.8;"/>
   </g>
   <g id="patch_6">
    <path d="M 86.22 88.0416 
L 620.784 88.0416 
" style="fill:none;stroke:#000000;stroke-linecap:square;stroke-linejoin:miter;stroke-width:0.8;"/>
   </g>
   <g id="text_21">
    <!-- Duration of action potential for 100 temperatures between 0 and 45 degrees Celcius -->
    <defs>
     <path d="M 19.671875 64.796875 
L 19.671875 8.109375 
L 31.59375 8.109375 
Q 46.6875 8.109375 53.6875 14.9375 
Q 60.6875 21.78125 60.6875 36.53125 
Q 60.6875 51.171875 53.6875 57.984375 
Q 46.6875 64.796875 31.59375 64.796875 
z
M 9.8125 72.90625 
L 30.078125 72.90625 
Q 51.265625 72.90625 61.171875 64.09375 
Q 71.09375 55.28125 71.09375 36.53125 
Q 71.09375 17.671875 61.125 8.828125 
Q 51.171875 0 30.078125 0 
L 9.8125 0 
z
" id="DejaVuSans-68"/>
     <path d="M 8.5 21.578125 
L 8.5 54.6875 
L 17.484375 54.6875 
L 17.484375 21.921875 
Q 17.484375 14.15625 20.5 10.265625 
Q 23.53125 6.390625 29.59375 6.390625 
Q 36.859375 6.390625 41.078125 11.03125 
Q 45.3125 15.671875 45.3125 23.6875 
L 45.3125 54.6875 
L 54.296875 54.6875 
L 54.296875 0 
L 45.3125 0 
L 45.3125 8.40625 
Q 42.046875 3.421875 37.71875 1 
Q 33.40625 -1.421875 27.6875 -1.421875 
Q 18.265625 -1.421875 13.375 4.4375 
Q 8.5 10.296875 8.5 21.578125 
z
M 31.109375 56 
z
" id="DejaVuSans-117"/>
     <path d="M 41.109375 46.296875 
Q 39.59375 47.171875 37.8125 47.578125 
Q 36.03125 48 33.890625 48 
Q 26.265625 48 22.1875 43.046875 
Q 18.109375 38.09375 18.109375 28.8125 
L 18.109375 0 
L 9.078125 0 
L 9.078125 54.6875 
L 18.109375 54.6875 
L 18.109375 46.1875 
Q 20.953125 51.171875 25.484375 53.578125 
Q 30.03125 56 36.53125 56 
Q 37.453125 56 38.578125 55.875 
Q 39.703125 55.765625 41.0625 55.515625 
z
" id="DejaVuSans-114"/>
     <path d="M 34.28125 27.484375 
Q 23.390625 27.484375 19.1875 25 
Q 14.984375 22.515625 14.984375 16.5 
Q 14.984375 11.71875 18.140625 8.90625 
Q 21.296875 6.109375 26.703125 6.109375 
Q 34.1875 6.109375 38.703125 11.40625 
Q 43.21875 16.703125 43.21875 25.484375 
L 43.21875 27.484375 
z
M 52.203125 31.203125 
L 52.203125 0 
L 43.21875 0 
L 43.21875 8.296875 
Q 40.140625 3.328125 35.546875 0.953125 
Q 30.953125 -1.421875 24.3125 -1.421875 
Q 15.921875 -1.421875 10.953125 3.296875 
Q 6 8.015625 6 15.921875 
Q 6 25.140625 12.171875 29.828125 
Q 18.359375 34.515625 30.609375 34.515625 
L 43.21875 34.515625 
L 43.21875 35.40625 
Q 43.21875 41.609375 39.140625 45 
Q 35.0625 48.390625 27.6875 48.390625 
Q 23 48.390625 18.546875 47.265625 
Q 14.109375 46.140625 10.015625 43.890625 
L 10.015625 52.203125 
Q 14.9375 54.109375 19.578125 55.046875 
Q 24.21875 56 28.609375 56 
Q 40.484375 56 46.34375 49.84375 
Q 52.203125 43.703125 52.203125 31.203125 
z
" id="DejaVuSans-97"/>
     <path d="M 9.421875 54.6875 
L 18.40625 54.6875 
L 18.40625 0 
L 9.421875 0 
z
M 9.421875 75.984375 
L 18.40625 75.984375 
L 18.40625 64.59375 
L 9.421875 64.59375 
z
" id="DejaVuSans-105"/>
     <path d="M 30.609375 48.390625 
Q 23.390625 48.390625 19.1875 42.75 
Q 14.984375 37.109375 14.984375 27.296875 
Q 14.984375 17.484375 19.15625 11.84375 
Q 23.34375 6.203125 30.609375 6.203125 
Q 37.796875 6.203125 41.984375 11.859375 
Q 46.1875 17.53125 46.1875 27.296875 
Q 46.1875 37.015625 41.984375 42.703125 
Q 37.796875 48.390625 30.609375 48.390625 
z
M 30.609375 56 
Q 42.328125 56 49.015625 48.375 
Q 55.71875 40.765625 55.71875 27.296875 
Q 55.71875 13.875 49.015625 6.21875 
Q 42.328125 -1.421875 30.609375 -1.421875 
Q 18.84375 -1.421875 12.171875 6.21875 
Q 5.515625 13.875 5.515625 27.296875 
Q 5.515625 40.765625 12.171875 48.375 
Q 18.84375 56 30.609375 56 
z
" id="DejaVuSans-111"/>
     <path d="M 54.890625 33.015625 
L 54.890625 0 
L 45.90625 0 
L 45.90625 32.71875 
Q 45.90625 40.484375 42.875 44.328125 
Q 39.84375 48.1875 33.796875 48.1875 
Q 26.515625 48.1875 22.3125 43.546875 
Q 18.109375 38.921875 18.109375 30.90625 
L 18.109375 0 
L 9.078125 0 
L 9.078125 54.6875 
L 18.109375 54.6875 
L 18.109375 46.1875 
Q 21.34375 51.125 25.703125 53.5625 
Q 30.078125 56 35.796875 56 
Q 45.21875 56 50.046875 50.171875 
Q 54.890625 44.34375 54.890625 33.015625 
z
" id="DejaVuSans-110"/>
     <path d="M 37.109375 75.984375 
L 37.109375 68.5 
L 28.515625 68.5 
Q 23.6875 68.5 21.796875 66.546875 
Q 19.921875 64.59375 19.921875 59.515625 
L 19.921875 54.6875 
L 34.71875 54.6875 
L 34.71875 47.703125 
L 19.921875 47.703125 
L 19.921875 0 
L 10.890625 0 
L 10.890625 47.703125 
L 2.296875 47.703125 
L 2.296875 54.6875 
L 10.890625 54.6875 
L 10.890625 58.5 
Q 10.890625 67.625 15.140625 71.796875 
Q 19.390625 75.984375 28.609375 75.984375 
z
" id="DejaVuSans-102"/>
     <path d="M 48.78125 52.59375 
L 48.78125 44.1875 
Q 44.96875 46.296875 41.140625 47.34375 
Q 37.3125 48.390625 33.40625 48.390625 
Q 24.65625 48.390625 19.8125 42.84375 
Q 14.984375 37.3125 14.984375 27.296875 
Q 14.984375 17.28125 19.8125 11.734375 
Q 24.65625 6.203125 33.40625 6.203125 
Q 37.3125 6.203125 41.140625 7.25 
Q 44.96875 8.296875 48.78125 10.40625 
L 48.78125 2.09375 
Q 45.015625 0.34375 40.984375 -0.53125 
Q 36.96875 -1.421875 32.421875 -1.421875 
Q 20.0625 -1.421875 12.78125 6.34375 
Q 5.515625 14.109375 5.515625 27.296875 
Q 5.515625 40.671875 12.859375 48.328125 
Q 20.21875 56 33.015625 56 
Q 37.15625 56 41.109375 55.140625 
Q 45.0625 54.296875 48.78125 52.59375 
z
" id="DejaVuSans-99"/>
     <path d="M 18.109375 8.203125 
L 18.109375 -20.796875 
L 9.078125 -20.796875 
L 9.078125 54.6875 
L 18.109375 54.6875 
L 18.109375 46.390625 
Q 20.953125 51.265625 25.265625 53.625 
Q 29.59375 56 35.59375 56 
Q 45.5625 56 51.78125 48.09375 
Q 58.015625 40.1875 58.015625 27.296875 
Q 58.015625 14.40625 51.78125 6.484375 
Q 45.5625 -1.421875 35.59375 -1.421875 
Q 29.59375 -1.421875 25.265625 0.953125 
Q 20.953125 3.328125 18.109375 8.203125 
z
M 48.6875 27.296875 
Q 48.6875 37.203125 44.609375 42.84375 
Q 40.53125 48.484375 33.40625 48.484375 
Q 26.265625 48.484375 22.1875 42.84375 
Q 18.109375 37.203125 18.109375 27.296875 
Q 18.109375 17.390625 22.1875 11.75 
Q 26.265625 6.109375 33.40625 6.109375 
Q 40.53125 6.109375 44.609375 11.75 
Q 48.6875 17.390625 48.6875 27.296875 
z
" id="DejaVuSans-112"/>
     <path d="M 56.203125 29.59375 
L 56.203125 25.203125 
L 14.890625 25.203125 
Q 15.484375 15.921875 20.484375 11.0625 
Q 25.484375 6.203125 34.421875 6.203125 
Q 39.59375 6.203125 44.453125 7.46875 
Q 49.3125 8.734375 54.109375 11.28125 
L 54.109375 2.78125 
Q 49.265625 0.734375 44.1875 -0.34375 
Q 39.109375 -1.421875 33.890625 -1.421875 
Q 20.796875 -1.421875 13.15625 6.1875 
Q 5.515625 13.8125 5.515625 26.8125 
Q 5.515625 40.234375 12.765625 48.109375 
Q 20.015625 56 32.328125 56 
Q 43.359375 56 49.78125 48.890625 
Q 56.203125 41.796875 56.203125 29.59375 
z
M 47.21875 32.234375 
Q 47.125 39.59375 43.09375 43.984375 
Q 39.0625 48.390625 32.421875 48.390625 
Q 24.90625 48.390625 20.390625 44.140625 
Q 15.875 39.890625 15.1875 32.171875 
z
" id="DejaVuSans-101"/>
     <path d="M 9.421875 75.984375 
L 18.40625 75.984375 
L 18.40625 0 
L 9.421875 0 
z
" id="DejaVuSans-108"/>
     <path d="M 48.6875 27.296875 
Q 48.6875 37.203125 44.609375 42.84375 
Q 40.53125 48.484375 33.40625 48.484375 
Q 26.265625 48.484375 22.1875 42.84375 
Q 18.109375 37.203125 18.109375 27.296875 
Q 18.109375 17.390625 22.1875 11.75 
Q 26.265625 6.109375 33.40625 6.109375 
Q 40.53125 6.109375 44.609375 11.75 
Q 48.6875 17.390625 48.6875 27.296875 
z
M 18.109375 46.390625 
Q 20.953125 51.265625 25.265625 53.625 
Q 29.59375 56 35.59375 56 
Q 45.5625 56 51.78125 48.09375 
Q 58.015625 40.1875 58.015625 27.296875 
Q 58.015625 14.40625 51.78125 6.484375 
Q 45.5625 -1.421875 35.59375 -1.421875 
Q 29.59375 -1.421875 25.265625 0.953125 
Q 20.953125 3.328125 18.109375 8.203125 
L 18.109375 0 
L 9.078125 0 
L 9.078125 75.984375 
L 18.109375 75.984375 
z
" id="DejaVuSans-98"/>
     <path d="M 4.203125 54.6875 
L 13.1875 54.6875 
L 24.421875 12.015625 
L 35.59375 54.6875 
L 46.1875 54.6875 
L 57.421875 12.015625 
L 68.609375 54.6875 
L 77.59375 54.6875 
L 63.28125 0 
L 52.6875 0 
L 40.921875 44.828125 
L 29.109375 0 
L 18.5 0 
z
" id="DejaVuSans-119"/>
     <path d="M 45.40625 46.390625 
L 45.40625 75.984375 
L 54.390625 75.984375 
L 54.390625 0 
L 45.40625 0 
L 45.40625 8.203125 
Q 42.578125 3.328125 38.25 0.953125 
Q 33.9375 -1.421875 27.875 -1.421875 
Q 17.96875 -1.421875 11.734375 6.484375 
Q 5.515625 14.40625 5.515625 27.296875 
Q 5.515625 40.1875 11.734375 48.09375 
Q 17.96875 56 27.875 56 
Q 33.9375 56 38.25 53.625 
Q 42.578125 51.265625 45.40625 46.390625 
z
M 14.796875 27.296875 
Q 14.796875 17.390625 18.875 11.75 
Q 22.953125 6.109375 30.078125 6.109375 
Q 37.203125 6.109375 41.296875 11.75 
Q 45.40625 17.390625 45.40625 27.296875 
Q 45.40625 37.203125 41.296875 42.84375 
Q 37.203125 48.484375 30.078125 48.484375 
Q 22.953125 48.484375 18.875 42.84375 
Q 14.796875 37.203125 14.796875 27.296875 
z
" id="DejaVuSans-100"/>
     <path d="M 45.40625 27.984375 
Q 45.40625 37.75 41.375 43.109375 
Q 37.359375 48.484375 30.078125 48.484375 
Q 22.859375 48.484375 18.828125 43.109375 
Q 14.796875 37.75 14.796875 27.984375 
Q 14.796875 18.265625 18.828125 12.890625 
Q 22.859375 7.515625 30.078125 7.515625 
Q 37.359375 7.515625 41.375 12.890625 
Q 45.40625 18.265625 45.40625 27.984375 
z
M 54.390625 6.78125 
Q 54.390625 -7.171875 48.1875 -13.984375 
Q 42 -20.796875 29.203125 -20.796875 
Q 24.46875 -20.796875 20.265625 -20.09375 
Q 16.0625 -19.390625 12.109375 -17.921875 
L 12.109375 -9.1875 
Q 16.0625 -11.328125 19.921875 -12.34375 
Q 23.78125 -13.375 27.78125 -13.375 
Q 36.625 -13.375 41.015625 -8.765625 
Q 45.40625 -4.15625 45.40625 5.171875 
L 45.40625 9.625 
Q 42.625 4.78125 38.28125 2.390625 
Q 33.9375 0 27.875 0 
Q 17.828125 0 11.671875 7.65625 
Q 5.515625 15.328125 5.515625 27.984375 
Q 5.515625 40.671875 11.671875 48.328125 
Q 17.828125 56 27.875 56 
Q 33.9375 56 38.28125 53.609375 
Q 42.625 51.21875 45.40625 46.390625 
L 45.40625 54.6875 
L 54.390625 54.6875 
z
" id="DejaVuSans-103"/>
    </defs>
    <g transform="translate(98.532937 66.777975)scale(0.12 -0.12)">
     <use xlink:href="#DejaVuSans-68"/>
     <use x="77.001953" xlink:href="#DejaVuSans-117"/>
     <use x="140.380859" xlink:href="#DejaVuSans-114"/>
     <use x="181.494141" xlink:href="#DejaVuSans-97"/>
     <use x="242.773438" xlink:href="#DejaVuSans-116"/>
     <use x="281.982422" xlink:href="#DejaVuSans-105"/>
     <use x="309.765625" xlink:href="#DejaVuSans-111"/>
     <use x="370.947266" xlink:href="#DejaVuSans-110"/>
     <use x="434.326172" xlink:href="#DejaVuSans-32"/>
     <use x="466.113281" xlink:href="#DejaVuSans-111"/>
     <use x="527.294922" xlink:href="#DejaVuSans-102"/>
     <use x="562.5" xlink:href="#DejaVuSans-32"/>
     <use x="594.287109" xlink:href="#DejaVuSans-97"/>
     <use x="655.566406" xlink:href="#DejaVuSans-99"/>
     <use x="710.546875" xlink:href="#DejaVuSans-116"/>
     <use x="749.755859" xlink:href="#DejaVuSans-105"/>
     <use x="777.539062" xlink:href="#DejaVuSans-111"/>
     <use x="838.720703" xlink:href="#DejaVuSans-110"/>
     <use x="902.099609" xlink:href="#DejaVuSans-32"/>
     <use x="933.886719" xlink:href="#DejaVuSans-112"/>
     <use x="997.363281" xlink:href="#DejaVuSans-111"/>
     <use x="1058.544922" xlink:href="#DejaVuSans-116"/>
     <use x="1097.753906" xlink:href="#DejaVuSans-101"/>
     <use x="1159.277344" xlink:href="#DejaVuSans-110"/>
     <use x="1222.65625" xlink:href="#DejaVuSans-116"/>
     <use x="1261.865234" xlink:href="#DejaVuSans-105"/>
     <use x="1289.648438" xlink:href="#DejaVuSans-97"/>
     <use x="1350.927734" xlink:href="#DejaVuSans-108"/>
     <use x="1378.710938" xlink:href="#DejaVuSans-32"/>
     <use x="1410.498047" xlink:href="#DejaVuSans-102"/>
     <use x="1445.703125" xlink:href="#DejaVuSans-111"/>
     <use x="1506.884766" xlink:href="#DejaVuSans-114"/>
     <use x="1547.998047" xlink:href="#DejaVuSans-32"/>
     <use x="1579.785156" xlink:href="#DejaVuSans-49"/>
     <use x="1643.408203" xlink:href="#DejaVuSans-48"/>
     <use x="1707.03125" xlink:href="#DejaVuSans-48"/>
     <use x="1770.654297" xlink:href="#DejaVuSans-32"/>
     <use x="1802.441406" xlink:href="#DejaVuSans-116"/>
     <use x="1841.650391" xlink:href="#DejaVuSans-101"/>
     <use x="1903.173828" xlink:href="#DejaVuSans-109"/>
     <use x="2000.585938" xlink:href="#DejaVuSans-112"/>
     <use x="2064.0625" xlink:href="#DejaVuSans-101"/>
     <use x="2125.585938" xlink:href="#DejaVuSans-114"/>
     <use x="2166.699219" xlink:href="#DejaVuSans-97"/>
     <use x="2227.978516" xlink:href="#DejaVuSans-116"/>
     <use x="2267.1875" xlink:href="#DejaVuSans-117"/>
     <use x="2330.566406" xlink:href="#DejaVuSans-114"/>
     <use x="2371.648438" xlink:href="#DejaVuSans-101"/>
     <use x="2433.171875" xlink:href="#DejaVuSans-115"/>
     <use x="2485.271484" xlink:href="#DejaVuSans-32"/>
     <use x="2517.058594" xlink:href="#DejaVuSans-98"/>
     <use x="2580.535156" xlink:href="#DejaVuSans-101"/>
     <use x="2642.058594" xlink:href="#DejaVuSans-116"/>
     <use x="2681.267578" xlink:href="#DejaVuSans-119"/>
     <use x="2763.054688" xlink:href="#DejaVuSans-101"/>
     <use x="2824.578125" xlink:href="#DejaVuSans-101"/>
     <use x="2886.101562" xlink:href="#DejaVuSans-110"/>
     <use x="2949.480469" xlink:href="#DejaVuSans-32"/>
     <use x="2981.267578" xlink:href="#DejaVuSans-48"/>
     <use x="3044.890625" xlink:href="#DejaVuSans-32"/>
     <use x="3076.677734" xlink:href="#DejaVuSans-97"/>
     <use x="3137.957031" xlink:href="#DejaVuSans-110"/>
     <use x="3201.335938" xlink:href="#DejaVuSans-100"/>
     <use x="3264.8125" xlink:href="#DejaVuSans-32"/>
     <use x="3296.599609" xlink:href="#DejaVuSans-52"/>
     <use x="3360.222656" xlink:href="#DejaVuSans-53"/>
     <use x="3423.845703" xlink:href="#DejaVuSans-32"/>
     <use x="3455.632812" xlink:href="#DejaVuSans-100"/>
     <use x="3519.109375" xlink:href="#DejaVuSans-101"/>
     <use x="3580.632812" xlink:href="#DejaVuSans-103"/>
     <use x="3644.109375" xlink:href="#DejaVuSans-114"/>
     <use x="3685.191406" xlink:href="#DejaVuSans-101"/>
     <use x="3746.714844" xlink:href="#DejaVuSans-101"/>
     <use x="3808.238281" xlink:href="#DejaVuSans-115"/>
     <use x="3860.337891" xlink:href="#DejaVuSans-32"/>
     <use x="3892.125" xlink:href="#DejaVuSans-67"/>
     <use x="3961.949219" xlink:href="#DejaVuSans-101"/>
     <use x="4023.472656" xlink:href="#DejaVuSans-108"/>
     <use x="4051.255859" xlink:href="#DejaVuSans-99"/>
     <use x="4106.236328" xlink:href="#DejaVuSans-105"/>
     <use x="4134.019531" xlink:href="#DejaVuSans-117"/>
     <use x="4197.398438" xlink:href="#DejaVuSans-115"/>
    </g>
    <!-- with injected current of 50 $\mu$A/cm$^2$. -->
    <defs>
     <path d="M 54.890625 33.015625 
L 54.890625 0 
L 45.90625 0 
L 45.90625 32.71875 
Q 45.90625 40.484375 42.875 44.328125 
Q 39.84375 48.1875 33.796875 48.1875 
Q 26.515625 48.1875 22.3125 43.546875 
Q 18.109375 38.921875 18.109375 30.90625 
L 18.109375 0 
L 9.078125 0 
L 9.078125 75.984375 
L 18.109375 75.984375 
L 18.109375 46.1875 
Q 21.34375 51.125 25.703125 53.5625 
Q 30.078125 56 35.796875 56 
Q 45.21875 56 50.046875 50.171875 
Q 54.890625 44.34375 54.890625 33.015625 
z
" id="DejaVuSans-104"/>
     <path d="M 9.421875 54.6875 
L 18.40625 54.6875 
L 18.40625 -0.984375 
Q 18.40625 -11.421875 14.421875 -16.109375 
Q 10.453125 -20.796875 1.609375 -20.796875 
L -1.8125 -20.796875 
L -1.8125 -13.1875 
L 0.59375 -13.1875 
Q 5.71875 -13.1875 7.5625 -10.8125 
Q 9.421875 -8.453125 9.421875 -0.984375 
z
M 9.421875 75.984375 
L 18.40625 75.984375 
L 18.40625 64.59375 
L 9.421875 64.59375 
z
" id="DejaVuSans-106"/>
     <path d="M -1.3125 -20.796875 
L 13.375 54.6875 
L 22.40625 54.6875 
L 15.765625 20.65625 
Q 15.578125 19.625 15.421875 18.359375 
Q 15.28125 17.09375 15.28125 15.828125 
Q 15.28125 11.28125 18.140625 8.828125 
Q 21 6.390625 26.3125 6.390625 
Q 33.546875 6.390625 37.984375 10.484375 
Q 42.4375 14.59375 44 22.796875 
L 50.203125 54.6875 
L 59.1875 54.6875 
L 51.03125 12.640625 
Q 50.828125 11.71875 50.75 11.03125 
Q 50.6875 10.359375 50.6875 9.8125 
Q 50.6875 8.296875 51.296875 7.59375 
Q 51.90625 6.890625 53.21875 6.890625 
Q 53.71875 6.890625 54.5625 7.125 
Q 55.421875 7.375 56.984375 8.015625 
L 55.609375 0.78125 
Q 53.46875 -0.296875 51.515625 -0.859375 
Q 49.5625 -1.421875 47.703125 -1.421875 
Q 44.484375 -1.421875 42.65625 0.625 
Q 40.828125 2.6875 40.828125 6.296875 
Q 38.09375 2.390625 34.296875 0.484375 
Q 30.515625 -1.421875 25.390625 -1.421875 
Q 20.84375 -1.421875 17.453125 0.671875 
Q 14.0625 2.78125 12.984375 6.203125 
L 7.71875 -20.796875 
z
" id="DejaVuSans-Oblique-956"/>
     <path d="M 34.1875 63.1875 
L 20.796875 26.90625 
L 47.609375 26.90625 
z
M 28.609375 72.90625 
L 39.796875 72.90625 
L 67.578125 0 
L 57.328125 0 
L 50.6875 18.703125 
L 17.828125 18.703125 
L 11.1875 0 
L 0.78125 0 
z
" id="DejaVuSans-65"/>
     <path d="M 25.390625 72.90625 
L 33.6875 72.90625 
L 8.296875 -9.28125 
L 0 -9.28125 
z
" id="DejaVuSans-47"/>
    </defs>
    <g transform="translate(248.022 82.3776)scale(0.12 -0.12)">
     <use transform="translate(0 0.765625)" xlink:href="#DejaVuSans-119"/>
     <use transform="translate(81.787109 0.765625)" xlink:href="#DejaVuSans-105"/>
     <use transform="translate(109.570312 0.765625)" xlink:href="#DejaVuSans-116"/>
     <use transform="translate(148.779297 0.765625)" xlink:href="#DejaVuSans-104"/>
     <use transform="translate(212.158203 0.765625)" xlink:href="#DejaVuSans-32"/>
     <use transform="translate(243.945312 0.765625)" xlink:href="#DejaVuSans-105"/>
     <use transform="translate(271.728516 0.765625)" xlink:href="#DejaVuSans-110"/>
     <use transform="translate(335.107422 0.765625)" xlink:href="#DejaVuSans-106"/>
     <use transform="translate(362.890625 0.765625)" xlink:href="#DejaVuSans-101"/>
     <use transform="translate(424.414062 0.765625)" xlink:href="#DejaVuSans-99"/>
     <use transform="translate(479.394531 0.765625)" xlink:href="#DejaVuSans-116"/>
     <use transform="translate(518.603516 0.765625)" xlink:href="#DejaVuSans-101"/>
     <use transform="translate(580.126953 0.765625)" xlink:href="#DejaVuSans-100"/>
     <use transform="translate(643.603516 0.765625)" xlink:href="#DejaVuSans-32"/>
     <use transform="translate(675.390625 0.765625)" xlink:href="#DejaVuSans-99"/>
     <use transform="translate(730.371094 0.765625)" xlink:href="#DejaVuSans-117"/>
     <use transform="translate(793.75 0.765625)" xlink:href="#DejaVuSans-114"/>
     <use transform="translate(834.863281 0.765625)" xlink:href="#DejaVuSans-114"/>
     <use transform="translate(875.976562 0.765625)" xlink:href="#DejaVuSans-101"/>
     <use transform="translate(937.5 0.765625)" xlink:href="#DejaVuSans-110"/>
     <use transform="translate(1000.878906 0.765625)" xlink:href="#DejaVuSans-116"/>
     <use transform="translate(1040.087891 0.765625)" xlink:href="#DejaVuSans-32"/>
     <use transform="translate(1071.875 0.765625)" xlink:href="#DejaVuSans-111"/>
     <use transform="translate(1133.056641 0.765625)" xlink:href="#DejaVuSans-102"/>
     <use transform="translate(1168.261719 0.765625)" xlink:href="#DejaVuSans-32"/>
     <use transform="translate(1200.048828 0.765625)" xlink:href="#DejaVuSans-53"/>
     <use transform="translate(1263.671875 0.765625)" xlink:href="#DejaVuSans-48"/>
     <use transform="translate(1327.294922 0.765625)" xlink:href="#DejaVuSans-32"/>
     <use transform="translate(1359.082031 0.765625)" xlink:href="#DejaVuSans-Oblique-956"/>
     <use transform="translate(1422.705078 0.765625)" xlink:href="#DejaVuSans-65"/>
     <use transform="translate(1491.113281 0.765625)" xlink:href="#DejaVuSans-47"/>
     <use transform="translate(1524.804688 0.765625)" xlink:href="#DejaVuSans-99"/>
     <use transform="translate(1579.785156 0.765625)" xlink:href="#DejaVuSans-109"/>
     <use transform="translate(1678.154297 39.046875)scale(0.7)" xlink:href="#DejaVuSans-50"/>
     <use transform="translate(1725.424805 0.765625)" xlink:href="#DejaVuSans-46"/>
    </g>
   </g>
   <g id="legend_1">
    <g id="patch_7">
     <path d="M 519.26525 140.075975 
L 613.784 140.075975 
Q 615.784 140.075975 615.784 138.075975 
L 615.784 95.0416 
Q 615.784 93.0416 613.784 93.0416 
L 519.26525 93.0416 
Q 517.26525 93.0416 517.26525 95.0416 
L 517.26525 138.075975 
Q 517.26525 140.075975 519.26525 140.075975 
z
" style="fill:#ffffff;opacity:0.8;stroke:#cccccc;stroke-linejoin:miter;"/>
    </g>
    <g id="line2d_22">
     <path d="M 521.26525 101.140037 
L 541.26525 101.140037 
" style="fill:none;stroke:#008000;stroke-dasharray:9.6,2.4,1.5,2.4;stroke-dashoffset:0;stroke-width:1.5;"/>
    </g>
    <g id="line2d_23"/>
    <g id="text_22">
     <!-- Quadratic fit -->
     <defs>
      <path d="M 39.40625 66.21875 
Q 28.65625 66.21875 22.328125 58.203125 
Q 16.015625 50.203125 16.015625 36.375 
Q 16.015625 22.609375 22.328125 14.59375 
Q 28.65625 6.59375 39.40625 6.59375 
Q 50.140625 6.59375 56.421875 14.59375 
Q 62.703125 22.609375 62.703125 36.375 
Q 62.703125 50.203125 56.421875 58.203125 
Q 50.140625 66.21875 39.40625 66.21875 
z
M 53.21875 1.3125 
L 66.21875 -12.890625 
L 54.296875 -12.890625 
L 43.5 -1.21875 
Q 41.890625 -1.3125 41.03125 -1.359375 
Q 40.1875 -1.421875 39.40625 -1.421875 
Q 24.03125 -1.421875 14.8125 8.859375 
Q 5.609375 19.140625 5.609375 36.375 
Q 5.609375 53.65625 14.8125 63.9375 
Q 24.03125 74.21875 39.40625 74.21875 
Q 54.734375 74.21875 63.90625 63.9375 
Q 73.09375 53.65625 73.09375 36.375 
Q 73.09375 23.6875 67.984375 14.640625 
Q 62.890625 5.609375 53.21875 1.3125 
z
" id="DejaVuSans-81"/>
     </defs>
     <g transform="translate(549.26525 104.640037)scale(0.1 -0.1)">
      <use xlink:href="#DejaVuSans-81"/>
      <use x="78.710938" xlink:href="#DejaVuSans-117"/>
      <use x="142.089844" xlink:href="#DejaVuSans-97"/>
      <use x="203.369141" xlink:href="#DejaVuSans-100"/>
      <use x="266.845703" xlink:href="#DejaVuSans-114"/>
      <use x="307.958984" xlink:href="#DejaVuSans-97"/>
      <use x="369.238281" xlink:href="#DejaVuSans-116"/>
      <use x="408.447266" xlink:href="#DejaVuSans-105"/>
      <use x="436.230469" xlink:href="#DejaVuSans-99"/>
      <use x="491.210938" xlink:href="#DejaVuSans-32"/>
      <use x="522.998047" xlink:href="#DejaVuSans-102"/>
      <use x="558.203125" xlink:href="#DejaVuSans-105"/>
      <use x="585.986328" xlink:href="#DejaVuSans-116"/>
     </g>
    </g>
    <g id="line2d_24">
     <path d="M 521.26525 115.818162 
L 541.26525 115.818162 
" style="fill:none;stroke:#000000;stroke-dasharray:9.6,2.4,1.5,2.4;stroke-dashoffset:0;stroke-width:1.5;"/>
    </g>
    <g id="line2d_25"/>
    <g id="text_23">
     <!-- Cubic fit -->
     <g transform="translate(549.26525 119.318162)scale(0.1 -0.1)">
      <use xlink:href="#DejaVuSans-67"/>
      <use x="69.824219" xlink:href="#DejaVuSans-117"/>
      <use x="133.203125" xlink:href="#DejaVuSans-98"/>
      <use x="196.679688" xlink:href="#DejaVuSans-105"/>
      <use x="224.462891" xlink:href="#DejaVuSans-99"/>
      <use x="279.443359" xlink:href="#DejaVuSans-32"/>
      <use x="311.230469" xlink:href="#DejaVuSans-102"/>
      <use x="346.435547" xlink:href="#DejaVuSans-105"/>
      <use x="374.21875" xlink:href="#DejaVuSans-116"/>
     </g>
    </g>
    <g id="PathCollection_2">
     <g>
      <use style="fill:#1f77b4;stroke:#1f77b4;" x="531.26525" xlink:href="#m4d667bdb52" y="131.371287"/>
     </g>
    </g>
    <g id="text_24">
     <!-- Data points -->
     <g transform="translate(549.26525 133.996287)scale(0.1 -0.1)">
      <use xlink:href="#DejaVuSans-68"/>
      <use x="77.001953" xlink:href="#DejaVuSans-97"/>
      <use x="138.28125" xlink:href="#DejaVuSans-116"/>
      <use x="177.490234" xlink:href="#DejaVuSans-97"/>
      <use x="238.769531" xlink:href="#DejaVuSans-32"/>
      <use x="270.556641" xlink:href="#DejaVuSans-112"/>
      <use x="334.033203" xlink:href="#DejaVuSans-111"/>
      <use x="395.214844" xlink:href="#DejaVuSans-105"/>
      <use x="422.998047" xlink:href="#DejaVuSans-110"/>
      <use x="486.376953" xlink:href="#DejaVuSans-116"/>
      <use x="525.585938" xlink:href="#DejaVuSans-115"/>
     </g>
    </g>
   </g>
  </g>
 </g>
 <defs>
  <clipPath id="p61dd93c376">
   <rect height="564.9336" width="534.564" x="86.22" y="88.0416"/>
  </clipPath>
 </defs>
</svg>
