<?xml version="1.0" encoding="utf-8" standalone="no"?>
<!DOCTYPE svg PUBLIC "-//W3C//DTD SVG 1.1//EN"
  "http://www.w3.org/Graphics/SVG/1.1/DTD/svg11.dtd">
<!-- Created with matplotlib (https://matplotlib.org/) -->
<svg height="733.68pt" version="1.1" viewBox="0 0 689.76 733.68" width="689.76pt" xmlns="http://www.w3.org/2000/svg" xmlns:xlink="http://www.w3.org/1999/xlink">
 <defs>
  <style type="text/css">
*{stroke-linecap:butt;stroke-linejoin:round;}
  </style>
 </defs>
 <g id="figure_1">
  <g id="patch_1">
   <path d="M 0 733.68 
L 689.76 733.68 
L 689.76 0 
L 0 0 
z
" style="fill:#ffffff;"/>
  </g>
  <g id="axes_1">
   <g id="patch_2">
    <path d="M 86.22 652.9752 
L 620.784 652.9752 
L 620.784 88.0416 
L 86.22 88.0416 
z
" style="fill:#ffffff;"/>
   </g>
   <g id="matplotlib.axis_1">
    <g id="xtick_1">
     <g id="line2d_1">
      <defs>
       <path d="M 0 0 
L 0 3.5 
" id="m21856ab463" style="stroke:#000000;stroke-width:0.8;"/>
      </defs>
      <g>
       <use style="stroke:#000000;stroke-width:0.8;" x="110.518364" xlink:href="#m21856ab463" y="652.9752"/>
      </g>
     </g>
     <g id="text_1">
      <!-- 0.0 -->
      <defs>
       <path d="M 31.78125 66.40625 
Q 24.171875 66.40625 20.328125 58.90625 
Q 16.5 51.421875 16.5 36.375 
Q 16.5 21.390625 20.328125 13.890625 
Q 24.171875 6.390625 31.78125 6.390625 
Q 39.453125 6.390625 43.28125 13.890625 
Q 47.125 21.390625 47.125 36.375 
Q 47.125 51.421875 43.28125 58.90625 
Q 39.453125 66.40625 31.78125 66.40625 
z
M 31.78125 74.21875 
Q 44.046875 74.21875 50.515625 64.515625 
Q 56.984375 54.828125 56.984375 36.375 
Q 56.984375 17.96875 50.515625 8.265625 
Q 44.046875 -1.421875 31.78125 -1.421875 
Q 19.53125 -1.421875 13.0625 8.265625 
Q 6.59375 17.96875 6.59375 36.375 
Q 6.59375 54.828125 13.0625 64.515625 
Q 19.53125 74.21875 31.78125 74.21875 
z
" id="DejaVuSans-48"/>
       <path d="M 10.6875 12.40625 
L 21 12.40625 
L 21 0 
L 10.6875 0 
z
" id="DejaVuSans-46"/>
      </defs>
      <g transform="translate(102.566801 667.573637)scale(0.1 -0.1)">
       <use xlink:href="#DejaVuSans-48"/>
       <use x="63.623047" xlink:href="#DejaVuSans-46"/>
       <use x="95.410156" xlink:href="#DejaVuSans-48"/>
      </g>
     </g>
    </g>
    <g id="xtick_2">
     <g id="line2d_2">
      <g>
       <use style="stroke:#000000;stroke-width:0.8;" x="207.711818" xlink:href="#m21856ab463" y="652.9752"/>
      </g>
     </g>
     <g id="text_2">
      <!-- 0.5 -->
      <defs>
       <path d="M 10.796875 72.90625 
L 49.515625 72.90625 
L 49.515625 64.59375 
L 19.828125 64.59375 
L 19.828125 46.734375 
Q 21.96875 47.46875 24.109375 47.828125 
Q 26.265625 48.1875 28.421875 48.1875 
Q 40.625 48.1875 47.75 41.5 
Q 54.890625 34.8125 54.890625 23.390625 
Q 54.890625 11.625 47.5625 5.09375 
Q 40.234375 -1.421875 26.90625 -1.421875 
Q 22.3125 -1.421875 17.546875 -0.640625 
Q 12.796875 0.140625 7.71875 1.703125 
L 7.71875 11.625 
Q 12.109375 9.234375 16.796875 8.0625 
Q 21.484375 6.890625 26.703125 6.890625 
Q 35.15625 6.890625 40.078125 11.328125 
Q 45.015625 15.765625 45.015625 23.390625 
Q 45.015625 31 40.078125 35.4375 
Q 35.15625 39.890625 26.703125 39.890625 
Q 22.75 39.890625 18.8125 39.015625 
Q 14.890625 38.140625 10.796875 36.28125 
z
" id="DejaVuSans-53"/>
      </defs>
      <g transform="translate(199.760256 667.573637)scale(0.1 -0.1)">
       <use xlink:href="#DejaVuSans-48"/>
       <use x="63.623047" xlink:href="#DejaVuSans-46"/>
       <use x="95.410156" xlink:href="#DejaVuSans-53"/>
      </g>
     </g>
    </g>
    <g id="xtick_3">
     <g id="line2d_3">
      <g>
       <use style="stroke:#000000;stroke-width:0.8;" x="304.905273" xlink:href="#m21856ab463" y="652.9752"/>
      </g>
     </g>
     <g id="text_3">
      <!-- 1.0 -->
      <defs>
       <path d="M 12.40625 8.296875 
L 28.515625 8.296875 
L 28.515625 63.921875 
L 10.984375 60.40625 
L 10.984375 69.390625 
L 28.421875 72.90625 
L 38.28125 72.90625 
L 38.28125 8.296875 
L 54.390625 8.296875 
L 54.390625 0 
L 12.40625 0 
z
" id="DejaVuSans-49"/>
      </defs>
      <g transform="translate(296.95371 667.573637)scale(0.1 -0.1)">
       <use xlink:href="#DejaVuSans-49"/>
       <use x="63.623047" xlink:href="#DejaVuSans-46"/>
       <use x="95.410156" xlink:href="#DejaVuSans-48"/>
      </g>
     </g>
    </g>
    <g id="xtick_4">
     <g id="line2d_4">
      <g>
       <use style="stroke:#000000;stroke-width:0.8;" x="402.098727" xlink:href="#m21856ab463" y="652.9752"/>
      </g>
     </g>
     <g id="text_4">
      <!-- 1.5 -->
      <g transform="translate(394.147165 667.573637)scale(0.1 -0.1)">
       <use xlink:href="#DejaVuSans-49"/>
       <use x="63.623047" xlink:href="#DejaVuSans-46"/>
       <use x="95.410156" xlink:href="#DejaVuSans-53"/>
      </g>
     </g>
    </g>
    <g id="xtick_5">
     <g id="line2d_5">
      <g>
       <use style="stroke:#000000;stroke-width:0.8;" x="499.292182" xlink:href="#m21856ab463" y="652.9752"/>
      </g>
     </g>
     <g id="text_5">
      <!-- 2.0 -->
      <defs>
       <path d="M 19.1875 8.296875 
L 53.609375 8.296875 
L 53.609375 0 
L 7.328125 0 
L 7.328125 8.296875 
Q 12.9375 14.109375 22.625 23.890625 
Q 32.328125 33.6875 34.8125 36.53125 
Q 39.546875 41.84375 41.421875 45.53125 
Q 43.3125 49.21875 43.3125 52.78125 
Q 43.3125 58.59375 39.234375 62.25 
Q 35.15625 65.921875 28.609375 65.921875 
Q 23.96875 65.921875 18.8125 64.3125 
Q 13.671875 62.703125 7.8125 59.421875 
L 7.8125 69.390625 
Q 13.765625 71.78125 18.9375 73 
Q 24.125 74.21875 28.421875 74.21875 
Q 39.75 74.21875 46.484375 68.546875 
Q 53.21875 62.890625 53.21875 53.421875 
Q 53.21875 48.921875 51.53125 44.890625 
Q 49.859375 40.875 45.40625 35.40625 
Q 44.1875 33.984375 37.640625 27.21875 
Q 31.109375 20.453125 19.1875 8.296875 
z
" id="DejaVuSans-50"/>
      </defs>
      <g transform="translate(491.340619 667.573637)scale(0.1 -0.1)">
       <use xlink:href="#DejaVuSans-50"/>
       <use x="63.623047" xlink:href="#DejaVuSans-46"/>
       <use x="95.410156" xlink:href="#DejaVuSans-48"/>
      </g>
     </g>
    </g>
    <g id="xtick_6">
     <g id="line2d_6">
      <g>
       <use style="stroke:#000000;stroke-width:0.8;" x="596.485636" xlink:href="#m21856ab463" y="652.9752"/>
      </g>
     </g>
     <g id="text_6">
      <!-- 2.5 -->
      <g transform="translate(588.534074 667.573637)scale(0.1 -0.1)">
       <use xlink:href="#DejaVuSans-50"/>
       <use x="63.623047" xlink:href="#DejaVuSans-46"/>
       <use x="95.410156" xlink:href="#DejaVuSans-53"/>
      </g>
     </g>
    </g>
    <g id="text_7">
     <!-- Time (milliseconds) -->
     <defs>
      <path d="M -0.296875 72.90625 
L 61.375 72.90625 
L 61.375 64.59375 
L 35.5 64.59375 
L 35.5 0 
L 25.59375 0 
L 25.59375 64.59375 
L -0.296875 64.59375 
z
" id="DejaVuSans-84"/>
      <path d="M 9.421875 54.6875 
L 18.40625 54.6875 
L 18.40625 0 
L 9.421875 0 
z
M 9.421875 75.984375 
L 18.40625 75.984375 
L 18.40625 64.59375 
L 9.421875 64.59375 
z
" id="DejaVuSans-105"/>
      <path d="M 52 44.1875 
Q 55.375 50.25 60.0625 53.125 
Q 64.75 56 71.09375 56 
Q 79.640625 56 84.28125 50.015625 
Q 88.921875 44.046875 88.921875 33.015625 
L 88.921875 0 
L 79.890625 0 
L 79.890625 32.71875 
Q 79.890625 40.578125 77.09375 44.375 
Q 74.3125 48.1875 68.609375 48.1875 
Q 61.625 48.1875 57.5625 43.546875 
Q 53.515625 38.921875 53.515625 30.90625 
L 53.515625 0 
L 44.484375 0 
L 44.484375 32.71875 
Q 44.484375 40.625 41.703125 44.40625 
Q 38.921875 48.1875 33.109375 48.1875 
Q 26.21875 48.1875 22.15625 43.53125 
Q 18.109375 38.875 18.109375 30.90625 
L 18.109375 0 
L 9.078125 0 
L 9.078125 54.6875 
L 18.109375 54.6875 
L 18.109375 46.1875 
Q 21.1875 51.21875 25.484375 53.609375 
Q 29.78125 56 35.6875 56 
Q 41.65625 56 45.828125 52.96875 
Q 50 49.953125 52 44.1875 
z
" id="DejaVuSans-109"/>
      <path d="M 56.203125 29.59375 
L 56.203125 25.203125 
L 14.890625 25.203125 
Q 15.484375 15.921875 20.484375 11.0625 
Q 25.484375 6.203125 34.421875 6.203125 
Q 39.59375 6.203125 44.453125 7.46875 
Q 49.3125 8.734375 54.109375 11.28125 
L 54.109375 2.78125 
Q 49.265625 0.734375 44.1875 -0.34375 
Q 39.109375 -1.421875 33.890625 -1.421875 
Q 20.796875 -1.421875 13.15625 6.1875 
Q 5.515625 13.8125 5.515625 26.8125 
Q 5.515625 40.234375 12.765625 48.109375 
Q 20.015625 56 32.328125 56 
Q 43.359375 56 49.78125 48.890625 
Q 56.203125 41.796875 56.203125 29.59375 
z
M 47.21875 32.234375 
Q 47.125 39.59375 43.09375 43.984375 
Q 39.0625 48.390625 32.421875 48.390625 
Q 24.90625 48.390625 20.390625 44.140625 
Q 15.875 39.890625 15.1875 32.171875 
z
" id="DejaVuSans-101"/>
      <path id="DejaVuSans-32"/>
      <path d="M 31 75.875 
Q 24.46875 64.65625 21.28125 53.65625 
Q 18.109375 42.671875 18.109375 31.390625 
Q 18.109375 20.125 21.3125 9.0625 
Q 24.515625 -2 31 -13.1875 
L 23.1875 -13.1875 
Q 15.875 -1.703125 12.234375 9.375 
Q 8.59375 20.453125 8.59375 31.390625 
Q 8.59375 42.28125 12.203125 53.3125 
Q 15.828125 64.359375 23.1875 75.875 
z
" id="DejaVuSans-40"/>
      <path d="M 9.421875 75.984375 
L 18.40625 75.984375 
L 18.40625 0 
L 9.421875 0 
z
" id="DejaVuSans-108"/>
      <path d="M 44.28125 53.078125 
L 44.28125 44.578125 
Q 40.484375 46.53125 36.375 47.5 
Q 32.28125 48.484375 27.875 48.484375 
Q 21.1875 48.484375 17.84375 46.4375 
Q 14.5 44.390625 14.5 40.28125 
Q 14.5 37.15625 16.890625 35.375 
Q 19.28125 33.59375 26.515625 31.984375 
L 29.59375 31.296875 
Q 39.15625 29.25 43.1875 25.515625 
Q 47.21875 21.78125 47.21875 15.09375 
Q 47.21875 7.46875 41.1875 3.015625 
Q 35.15625 -1.421875 24.609375 -1.421875 
Q 20.21875 -1.421875 15.453125 -0.5625 
Q 10.6875 0.296875 5.421875 2 
L 5.421875 11.28125 
Q 10.40625 8.6875 15.234375 7.390625 
Q 20.0625 6.109375 24.8125 6.109375 
Q 31.15625 6.109375 34.5625 8.28125 
Q 37.984375 10.453125 37.984375 14.40625 
Q 37.984375 18.0625 35.515625 20.015625 
Q 33.0625 21.96875 24.703125 23.78125 
L 21.578125 24.515625 
Q 13.234375 26.265625 9.515625 29.90625 
Q 5.8125 33.546875 5.8125 39.890625 
Q 5.8125 47.609375 11.28125 51.796875 
Q 16.75 56 26.8125 56 
Q 31.78125 56 36.171875 55.265625 
Q 40.578125 54.546875 44.28125 53.078125 
z
" id="DejaVuSans-115"/>
      <path d="M 48.78125 52.59375 
L 48.78125 44.1875 
Q 44.96875 46.296875 41.140625 47.34375 
Q 37.3125 48.390625 33.40625 48.390625 
Q 24.65625 48.390625 19.8125 42.84375 
Q 14.984375 37.3125 14.984375 27.296875 
Q 14.984375 17.28125 19.8125 11.734375 
Q 24.65625 6.203125 33.40625 6.203125 
Q 37.3125 6.203125 41.140625 7.25 
Q 44.96875 8.296875 48.78125 10.40625 
L 48.78125 2.09375 
Q 45.015625 0.34375 40.984375 -0.53125 
Q 36.96875 -1.421875 32.421875 -1.421875 
Q 20.0625 -1.421875 12.78125 6.34375 
Q 5.515625 14.109375 5.515625 27.296875 
Q 5.515625 40.671875 12.859375 48.328125 
Q 20.21875 56 33.015625 56 
Q 37.15625 56 41.109375 55.140625 
Q 45.0625 54.296875 48.78125 52.59375 
z
" id="DejaVuSans-99"/>
      <path d="M 30.609375 48.390625 
Q 23.390625 48.390625 19.1875 42.75 
Q 14.984375 37.109375 14.984375 27.296875 
Q 14.984375 17.484375 19.15625 11.84375 
Q 23.34375 6.203125 30.609375 6.203125 
Q 37.796875 6.203125 41.984375 11.859375 
Q 46.1875 17.53125 46.1875 27.296875 
Q 46.1875 37.015625 41.984375 42.703125 
Q 37.796875 48.390625 30.609375 48.390625 
z
M 30.609375 56 
Q 42.328125 56 49.015625 48.375 
Q 55.71875 40.765625 55.71875 27.296875 
Q 55.71875 13.875 49.015625 6.21875 
Q 42.328125 -1.421875 30.609375 -1.421875 
Q 18.84375 -1.421875 12.171875 6.21875 
Q 5.515625 13.875 5.515625 27.296875 
Q 5.515625 40.765625 12.171875 48.375 
Q 18.84375 56 30.609375 56 
z
" id="DejaVuSans-111"/>
      <path d="M 54.890625 33.015625 
L 54.890625 0 
L 45.90625 0 
L 45.90625 32.71875 
Q 45.90625 40.484375 42.875 44.328125 
Q 39.84375 48.1875 33.796875 48.1875 
Q 26.515625 48.1875 22.3125 43.546875 
Q 18.109375 38.921875 18.109375 30.90625 
L 18.109375 0 
L 9.078125 0 
L 9.078125 54.6875 
L 18.109375 54.6875 
L 18.109375 46.1875 
Q 21.34375 51.125 25.703125 53.5625 
Q 30.078125 56 35.796875 56 
Q 45.21875 56 50.046875 50.171875 
Q 54.890625 44.34375 54.890625 33.015625 
z
" id="DejaVuSans-110"/>
      <path d="M 45.40625 46.390625 
L 45.40625 75.984375 
L 54.390625 75.984375 
L 54.390625 0 
L 45.40625 0 
L 45.40625 8.203125 
Q 42.578125 3.328125 38.25 0.953125 
Q 33.9375 -1.421875 27.875 -1.421875 
Q 17.96875 -1.421875 11.734375 6.484375 
Q 5.515625 14.40625 5.515625 27.296875 
Q 5.515625 40.1875 11.734375 48.09375 
Q 17.96875 56 27.875 56 
Q 33.9375 56 38.25 53.625 
Q 42.578125 51.265625 45.40625 46.390625 
z
M 14.796875 27.296875 
Q 14.796875 17.390625 18.875 11.75 
Q 22.953125 6.109375 30.078125 6.109375 
Q 37.203125 6.109375 41.296875 11.75 
Q 45.40625 17.390625 45.40625 27.296875 
Q 45.40625 37.203125 41.296875 42.84375 
Q 37.203125 48.484375 30.078125 48.484375 
Q 22.953125 48.484375 18.875 42.84375 
Q 14.796875 37.203125 14.796875 27.296875 
z
" id="DejaVuSans-100"/>
      <path d="M 8.015625 75.875 
L 15.828125 75.875 
Q 23.140625 64.359375 26.78125 53.3125 
Q 30.421875 42.28125 30.421875 31.390625 
Q 30.421875 20.453125 26.78125 9.375 
Q 23.140625 -1.703125 15.828125 -13.1875 
L 8.015625 -13.1875 
Q 14.5 -2 17.703125 9.0625 
Q 20.90625 20.125 20.90625 31.390625 
Q 20.90625 42.671875 17.703125 53.65625 
Q 14.5 64.65625 8.015625 75.875 
z
" id="DejaVuSans-41"/>
     </defs>
     <g transform="translate(304.759812 681.251762)scale(0.1 -0.1)">
      <use xlink:href="#DejaVuSans-84"/>
      <use x="61.037109" xlink:href="#DejaVuSans-105"/>
      <use x="88.820312" xlink:href="#DejaVuSans-109"/>
      <use x="186.232422" xlink:href="#DejaVuSans-101"/>
      <use x="247.755859" xlink:href="#DejaVuSans-32"/>
      <use x="279.542969" xlink:href="#DejaVuSans-40"/>
      <use x="318.556641" xlink:href="#DejaVuSans-109"/>
      <use x="415.96875" xlink:href="#DejaVuSans-105"/>
      <use x="443.751953" xlink:href="#DejaVuSans-108"/>
      <use x="471.535156" xlink:href="#DejaVuSans-108"/>
      <use x="499.318359" xlink:href="#DejaVuSans-105"/>
      <use x="527.101562" xlink:href="#DejaVuSans-115"/>
      <use x="579.201172" xlink:href="#DejaVuSans-101"/>
      <use x="640.724609" xlink:href="#DejaVuSans-99"/>
      <use x="695.705078" xlink:href="#DejaVuSans-111"/>
      <use x="756.886719" xlink:href="#DejaVuSans-110"/>
      <use x="820.265625" xlink:href="#DejaVuSans-100"/>
      <use x="883.742188" xlink:href="#DejaVuSans-115"/>
      <use x="935.841797" xlink:href="#DejaVuSans-41"/>
     </g>
    </g>
   </g>
   <g id="matplotlib.axis_2">
    <g id="ytick_1">
     <g id="line2d_7">
      <defs>
       <path d="M 0 0 
L -3.5 0 
" id="m5035737920" style="stroke:#000000;stroke-width:0.8;"/>
      </defs>
      <g>
       <use style="stroke:#000000;stroke-width:0.8;" x="86.22" xlink:href="#m5035737920" y="578.544641"/>
      </g>
     </g>
     <g id="text_8">
      <!-- 0 -->
      <g transform="translate(72.8575 582.343859)scale(0.1 -0.1)">
       <use xlink:href="#DejaVuSans-48"/>
      </g>
     </g>
    </g>
    <g id="ytick_2">
     <g id="line2d_8">
      <g>
       <use style="stroke:#000000;stroke-width:0.8;" x="86.22" xlink:href="#m5035737920" y="488.704742"/>
      </g>
     </g>
     <g id="text_9">
      <!-- 20 -->
      <g transform="translate(66.495 492.503961)scale(0.1 -0.1)">
       <use xlink:href="#DejaVuSans-50"/>
       <use x="63.623047" xlink:href="#DejaVuSans-48"/>
      </g>
     </g>
    </g>
    <g id="ytick_3">
     <g id="line2d_9">
      <g>
       <use style="stroke:#000000;stroke-width:0.8;" x="86.22" xlink:href="#m5035737920" y="398.864843"/>
      </g>
     </g>
     <g id="text_10">
      <!-- 40 -->
      <defs>
       <path d="M 37.796875 64.3125 
L 12.890625 25.390625 
L 37.796875 25.390625 
z
M 35.203125 72.90625 
L 47.609375 72.90625 
L 47.609375 25.390625 
L 58.015625 25.390625 
L 58.015625 17.1875 
L 47.609375 17.1875 
L 47.609375 0 
L 37.796875 0 
L 37.796875 17.1875 
L 4.890625 17.1875 
L 4.890625 26.703125 
z
" id="DejaVuSans-52"/>
      </defs>
      <g transform="translate(66.495 402.664062)scale(0.1 -0.1)">
       <use xlink:href="#DejaVuSans-52"/>
       <use x="63.623047" xlink:href="#DejaVuSans-48"/>
      </g>
     </g>
    </g>
    <g id="ytick_4">
     <g id="line2d_10">
      <g>
       <use style="stroke:#000000;stroke-width:0.8;" x="86.22" xlink:href="#m5035737920" y="309.024945"/>
      </g>
     </g>
     <g id="text_11">
      <!-- 60 -->
      <defs>
       <path d="M 33.015625 40.375 
Q 26.375 40.375 22.484375 35.828125 
Q 18.609375 31.296875 18.609375 23.390625 
Q 18.609375 15.53125 22.484375 10.953125 
Q 26.375 6.390625 33.015625 6.390625 
Q 39.65625 6.390625 43.53125 10.953125 
Q 47.40625 15.53125 47.40625 23.390625 
Q 47.40625 31.296875 43.53125 35.828125 
Q 39.65625 40.375 33.015625 40.375 
z
M 52.59375 71.296875 
L 52.59375 62.3125 
Q 48.875 64.0625 45.09375 64.984375 
Q 41.3125 65.921875 37.59375 65.921875 
Q 27.828125 65.921875 22.671875 59.328125 
Q 17.53125 52.734375 16.796875 39.40625 
Q 19.671875 43.65625 24.015625 45.921875 
Q 28.375 48.1875 33.59375 48.1875 
Q 44.578125 48.1875 50.953125 41.515625 
Q 57.328125 34.859375 57.328125 23.390625 
Q 57.328125 12.15625 50.6875 5.359375 
Q 44.046875 -1.421875 33.015625 -1.421875 
Q 20.359375 -1.421875 13.671875 8.265625 
Q 6.984375 17.96875 6.984375 36.375 
Q 6.984375 53.65625 15.1875 63.9375 
Q 23.390625 74.21875 37.203125 74.21875 
Q 40.921875 74.21875 44.703125 73.484375 
Q 48.484375 72.75 52.59375 71.296875 
z
" id="DejaVuSans-54"/>
      </defs>
      <g transform="translate(66.495 312.824164)scale(0.1 -0.1)">
       <use xlink:href="#DejaVuSans-54"/>
       <use x="63.623047" xlink:href="#DejaVuSans-48"/>
      </g>
     </g>
    </g>
    <g id="ytick_5">
     <g id="line2d_11">
      <g>
       <use style="stroke:#000000;stroke-width:0.8;" x="86.22" xlink:href="#m5035737920" y="219.185046"/>
      </g>
     </g>
     <g id="text_12">
      <!-- 80 -->
      <defs>
       <path d="M 31.78125 34.625 
Q 24.75 34.625 20.71875 30.859375 
Q 16.703125 27.09375 16.703125 20.515625 
Q 16.703125 13.921875 20.71875 10.15625 
Q 24.75 6.390625 31.78125 6.390625 
Q 38.8125 6.390625 42.859375 10.171875 
Q 46.921875 13.96875 46.921875 20.515625 
Q 46.921875 27.09375 42.890625 30.859375 
Q 38.875 34.625 31.78125 34.625 
z
M 21.921875 38.8125 
Q 15.578125 40.375 12.03125 44.71875 
Q 8.5 49.078125 8.5 55.328125 
Q 8.5 64.0625 14.71875 69.140625 
Q 20.953125 74.21875 31.78125 74.21875 
Q 42.671875 74.21875 48.875 69.140625 
Q 55.078125 64.0625 55.078125 55.328125 
Q 55.078125 49.078125 51.53125 44.71875 
Q 48 40.375 41.703125 38.8125 
Q 48.828125 37.15625 52.796875 32.3125 
Q 56.78125 27.484375 56.78125 20.515625 
Q 56.78125 9.90625 50.3125 4.234375 
Q 43.84375 -1.421875 31.78125 -1.421875 
Q 19.734375 -1.421875 13.25 4.234375 
Q 6.78125 9.90625 6.78125 20.515625 
Q 6.78125 27.484375 10.78125 32.3125 
Q 14.796875 37.15625 21.921875 38.8125 
z
M 18.3125 54.390625 
Q 18.3125 48.734375 21.84375 45.5625 
Q 25.390625 42.390625 31.78125 42.390625 
Q 38.140625 42.390625 41.71875 45.5625 
Q 45.3125 48.734375 45.3125 54.390625 
Q 45.3125 60.0625 41.71875 63.234375 
Q 38.140625 66.40625 31.78125 66.40625 
Q 25.390625 66.40625 21.84375 63.234375 
Q 18.3125 60.0625 18.3125 54.390625 
z
" id="DejaVuSans-56"/>
      </defs>
      <g transform="translate(66.495 222.984265)scale(0.1 -0.1)">
       <use xlink:href="#DejaVuSans-56"/>
       <use x="63.623047" xlink:href="#DejaVuSans-48"/>
      </g>
     </g>
    </g>
    <g id="ytick_6">
     <g id="line2d_12">
      <g>
       <use style="stroke:#000000;stroke-width:0.8;" x="86.22" xlink:href="#m5035737920" y="129.345148"/>
      </g>
     </g>
     <g id="text_13">
      <!-- 100 -->
      <g transform="translate(60.1325 133.144366)scale(0.1 -0.1)">
       <use xlink:href="#DejaVuSans-49"/>
       <use x="63.623047" xlink:href="#DejaVuSans-48"/>
       <use x="127.246094" xlink:href="#DejaVuSans-48"/>
      </g>
     </g>
    </g>
    <g id="text_14">
     <!-- Deviation from $V_{eq}$ (mV) -->
     <defs>
      <path d="M 19.671875 64.796875 
L 19.671875 8.109375 
L 31.59375 8.109375 
Q 46.6875 8.109375 53.6875 14.9375 
Q 60.6875 21.78125 60.6875 36.53125 
Q 60.6875 51.171875 53.6875 57.984375 
Q 46.6875 64.796875 31.59375 64.796875 
z
M 9.8125 72.90625 
L 30.078125 72.90625 
Q 51.265625 72.90625 61.171875 64.09375 
Q 71.09375 55.28125 71.09375 36.53125 
Q 71.09375 17.671875 61.125 8.828125 
Q 51.171875 0 30.078125 0 
L 9.8125 0 
z
" id="DejaVuSans-68"/>
      <path d="M 2.984375 54.6875 
L 12.5 54.6875 
L 29.59375 8.796875 
L 46.6875 54.6875 
L 56.203125 54.6875 
L 35.6875 0 
L 23.484375 0 
z
" id="DejaVuSans-118"/>
      <path d="M 34.28125 27.484375 
Q 23.390625 27.484375 19.1875 25 
Q 14.984375 22.515625 14.984375 16.5 
Q 14.984375 11.71875 18.140625 8.90625 
Q 21.296875 6.109375 26.703125 6.109375 
Q 34.1875 6.109375 38.703125 11.40625 
Q 43.21875 16.703125 43.21875 25.484375 
L 43.21875 27.484375 
z
M 52.203125 31.203125 
L 52.203125 0 
L 43.21875 0 
L 43.21875 8.296875 
Q 40.140625 3.328125 35.546875 0.953125 
Q 30.953125 -1.421875 24.3125 -1.421875 
Q 15.921875 -1.421875 10.953125 3.296875 
Q 6 8.015625 6 15.921875 
Q 6 25.140625 12.171875 29.828125 
Q 18.359375 34.515625 30.609375 34.515625 
L 43.21875 34.515625 
L 43.21875 35.40625 
Q 43.21875 41.609375 39.140625 45 
Q 35.0625 48.390625 27.6875 48.390625 
Q 23 48.390625 18.546875 47.265625 
Q 14.109375 46.140625 10.015625 43.890625 
L 10.015625 52.203125 
Q 14.9375 54.109375 19.578125 55.046875 
Q 24.21875 56 28.609375 56 
Q 40.484375 56 46.34375 49.84375 
Q 52.203125 43.703125 52.203125 31.203125 
z
" id="DejaVuSans-97"/>
      <path d="M 18.3125 70.21875 
L 18.3125 54.6875 
L 36.8125 54.6875 
L 36.8125 47.703125 
L 18.3125 47.703125 
L 18.3125 18.015625 
Q 18.3125 11.328125 20.140625 9.421875 
Q 21.96875 7.515625 27.59375 7.515625 
L 36.8125 7.515625 
L 36.8125 0 
L 27.59375 0 
Q 17.1875 0 13.234375 3.875 
Q 9.28125 7.765625 9.28125 18.015625 
L 9.28125 47.703125 
L 2.6875 47.703125 
L 2.6875 54.6875 
L 9.28125 54.6875 
L 9.28125 70.21875 
z
" id="DejaVuSans-116"/>
      <path d="M 37.109375 75.984375 
L 37.109375 68.5 
L 28.515625 68.5 
Q 23.6875 68.5 21.796875 66.546875 
Q 19.921875 64.59375 19.921875 59.515625 
L 19.921875 54.6875 
L 34.71875 54.6875 
L 34.71875 47.703125 
L 19.921875 47.703125 
L 19.921875 0 
L 10.890625 0 
L 10.890625 47.703125 
L 2.296875 47.703125 
L 2.296875 54.6875 
L 10.890625 54.6875 
L 10.890625 58.5 
Q 10.890625 67.625 15.140625 71.796875 
Q 19.390625 75.984375 28.609375 75.984375 
z
" id="DejaVuSans-102"/>
      <path d="M 41.109375 46.296875 
Q 39.59375 47.171875 37.8125 47.578125 
Q 36.03125 48 33.890625 48 
Q 26.265625 48 22.1875 43.046875 
Q 18.109375 38.09375 18.109375 28.8125 
L 18.109375 0 
L 9.078125 0 
L 9.078125 54.6875 
L 18.109375 54.6875 
L 18.109375 46.1875 
Q 20.953125 51.171875 25.484375 53.578125 
Q 30.03125 56 36.53125 56 
Q 37.453125 56 38.578125 55.875 
Q 39.703125 55.765625 41.0625 55.515625 
z
" id="DejaVuSans-114"/>
      <path d="M 20.609375 0 
L 7.8125 72.90625 
L 17.484375 72.90625 
L 28.078125 10.203125 
L 63.484375 72.90625 
L 74.21875 72.90625 
L 32.078125 0 
z
" id="DejaVuSans-Oblique-86"/>
      <path d="M 48.09375 32.234375 
Q 48.25 33.015625 48.3125 33.84375 
Q 48.390625 34.671875 48.390625 35.5 
Q 48.390625 41.453125 44.890625 44.921875 
Q 41.40625 48.390625 35.40625 48.390625 
Q 28.71875 48.390625 23.578125 44.15625 
Q 18.453125 39.9375 15.828125 32.171875 
z
M 55.90625 25.203125 
L 14.109375 25.203125 
Q 13.8125 23.34375 13.71875 22.265625 
Q 13.625 21.1875 13.625 20.40625 
Q 13.625 13.625 17.796875 9.90625 
Q 21.96875 6.203125 29.59375 6.203125 
Q 35.453125 6.203125 40.671875 7.515625 
Q 45.90625 8.84375 50.390625 11.375 
L 48.6875 2.484375 
Q 43.84375 0.53125 38.6875 -0.4375 
Q 33.546875 -1.421875 28.21875 -1.421875 
Q 16.84375 -1.421875 10.71875 4.015625 
Q 4.59375 9.46875 4.59375 19.484375 
Q 4.59375 28.03125 7.640625 35.375 
Q 10.6875 42.71875 16.609375 48.484375 
Q 20.40625 52.09375 25.65625 54.046875 
Q 30.90625 56 36.8125 56 
Q 46.09375 56 51.578125 50.4375 
Q 57.078125 44.875 57.078125 35.5 
Q 57.078125 33.25 56.78125 30.6875 
Q 56.5 28.125 55.90625 25.203125 
z
" id="DejaVuSans-Oblique-101"/>
      <path d="M 41.703125 8.203125 
Q 38.09375 3.46875 33.171875 1.015625 
Q 28.265625 -1.421875 22.3125 -1.421875 
Q 14.015625 -1.421875 9.296875 4.171875 
Q 4.59375 9.765625 4.59375 19.578125 
Q 4.59375 27.484375 7.5 34.859375 
Q 10.40625 42.234375 15.828125 48.09375 
Q 19.34375 51.90625 23.90625 53.953125 
Q 28.46875 56 33.5 56 
Q 39.546875 56 43.453125 53.609375 
Q 47.359375 51.21875 49.125 46.390625 
L 50.6875 54.59375 
L 59.71875 54.59375 
L 45.125 -20.609375 
L 36.078125 -20.609375 
z
M 13.921875 20.90625 
Q 13.921875 13.671875 16.9375 9.890625 
Q 19.96875 6.109375 25.6875 6.109375 
Q 34.1875 6.109375 40.1875 14.234375 
Q 46.1875 22.359375 46.1875 33.984375 
Q 46.1875 41.015625 43.078125 44.75 
Q 39.984375 48.484375 34.1875 48.484375 
Q 29.9375 48.484375 26.3125 46.5 
Q 22.703125 44.53125 20.015625 40.71875 
Q 17.1875 36.71875 15.546875 31.34375 
Q 13.921875 25.984375 13.921875 20.90625 
z
" id="DejaVuSans-Oblique-113"/>
      <path d="M 28.609375 0 
L 0.78125 72.90625 
L 11.078125 72.90625 
L 34.1875 11.53125 
L 57.328125 72.90625 
L 67.578125 72.90625 
L 39.796875 0 
z
" id="DejaVuSans-86"/>
     </defs>
     <g transform="translate(53.0325 431.1084)rotate(-90)scale(0.1 -0.1)">
      <use transform="translate(0 0.015625)" xlink:href="#DejaVuSans-68"/>
      <use transform="translate(77.001953 0.015625)" xlink:href="#DejaVuSans-101"/>
      <use transform="translate(138.525391 0.015625)" xlink:href="#DejaVuSans-118"/>
      <use transform="translate(197.705078 0.015625)" xlink:href="#DejaVuSans-105"/>
      <use transform="translate(225.488281 0.015625)" xlink:href="#DejaVuSans-97"/>
      <use transform="translate(286.767578 0.015625)" xlink:href="#DejaVuSans-116"/>
      <use transform="translate(325.976562 0.015625)" xlink:href="#DejaVuSans-105"/>
      <use transform="translate(353.759766 0.015625)" xlink:href="#DejaVuSans-111"/>
      <use transform="translate(414.941406 0.015625)" xlink:href="#DejaVuSans-110"/>
      <use transform="translate(478.320312 0.015625)" xlink:href="#DejaVuSans-32"/>
      <use transform="translate(510.107422 0.015625)" xlink:href="#DejaVuSans-102"/>
      <use transform="translate(545.3125 0.015625)" xlink:href="#DejaVuSans-114"/>
      <use transform="translate(586.425781 0.015625)" xlink:href="#DejaVuSans-111"/>
      <use transform="translate(647.607422 0.015625)" xlink:href="#DejaVuSans-109"/>
      <use transform="translate(745.019531 0.015625)" xlink:href="#DejaVuSans-32"/>
      <use transform="translate(776.806641 0.015625)" xlink:href="#DejaVuSans-Oblique-86"/>
      <use transform="translate(845.214844 -16.390625)scale(0.7)" xlink:href="#DejaVuSans-Oblique-101"/>
      <use transform="translate(888.28125 -16.390625)scale(0.7)" xlink:href="#DejaVuSans-Oblique-113"/>
      <use transform="translate(935.449219 0.015625)" xlink:href="#DejaVuSans-32"/>
      <use transform="translate(967.236328 0.015625)" xlink:href="#DejaVuSans-40"/>
      <use transform="translate(1006.25 0.015625)" xlink:href="#DejaVuSans-109"/>
      <use transform="translate(1103.662109 0.015625)" xlink:href="#DejaVuSans-86"/>
      <use transform="translate(1172.070312 0.015625)" xlink:href="#DejaVuSans-41"/>
     </g>
    </g>
   </g>
   <g id="line2d_13">
    <path clip-path="url(#p3c076edf20)" d="M 110.518364 578.544641 
L 151.728388 578.573499 
L 207.711818 578.530398 
L 208.294979 575.98688 
L 216.848003 537.043051 
L 233.176503 463.113012 
L 236.675468 445.885025 
L 239.396884 431.414939 
L 241.729527 417.901204 
L 243.867783 404.295749 
L 246.006039 389.195143 
L 246.5892 384.920714 
L 247.755521 380.966115 
L 248.921843 376.282382 
L 250.282551 369.846145 
L 251.64326 362.313333 
L 253.198355 352.308184 
L 254.75345 340.777201 
L 256.502932 325.979589 
L 258.446801 307.365341 
L 260.585057 284.567449 
L 263.500861 250.774737 
L 268.166147 196.604986 
L 270.110016 176.593521 
L 271.859498 160.814018 
L 273.414593 148.820915 
L 274.775302 139.960251 
L 276.13601 132.599301 
L 277.302332 127.425288 
L 278.468653 123.225299 
L 279.634975 119.916688 
L 280.606909 117.777003 
L 281.578844 116.144083 
L 282.550778 114.96827 
L 283.328326 114.325016 
L 284.105873 113.921568 
L 284.883421 113.736868 
L 285.660969 113.75144 
L 286.632903 114.022792 
L 287.604838 114.546189 
L 288.771159 115.467974 
L 289.937481 116.670958 
L 291.298189 118.382679 
L 292.853284 120.688313 
L 294.797153 124.012185 
L 296.935409 128.139884 
L 299.462439 133.540341 
L 302.378243 140.344177 
L 305.68282 148.653156 
L 309.570559 159.073611 
L 314.041457 171.719919 
L 319.484291 187.801712 
L 327.06538 210.956347 
L 349.808649 280.850478 
L 357.778512 304.397172 
L 365.165215 325.545725 
L 372.551917 346.015029 
L 379.93862 365.821825 
L 387.714096 386.017096 
L 396.26712 407.596437 
L 410.068591 441.690312 
L 419.787936 465.985462 
L 426.397091 483.09868 
L 432.423085 499.327821 
L 438.643466 516.744378 
L 455.166353 563.474118 
L 458.665318 572.417272 
L 461.775508 579.764374 
L 464.496925 585.654998 
L 467.218342 591.006206 
L 469.745372 595.481869 
L 472.272401 599.489757 
L 474.605044 602.791556 
L 476.937687 605.735106 
L 479.27033 608.347821 
L 481.79736 610.839194 
L 484.32439 613.014927 
L 486.85142 614.911645 
L 489.572836 616.68129 
L 492.48864 618.305794 
L 495.598831 619.774717 
L 498.903408 621.084315 
L 502.402372 622.23634 
L 506.290111 623.284066 
L 510.566623 624.208314 
L 515.426295 625.028862 
L 521.063516 625.7444 
L 527.478284 626.327226 
L 535.059373 626.786049 
L 544.195558 627.108728 
L 555.469999 627.27755 
L 570.049017 627.262409 
L 589.293321 627.008109 
L 596.485636 626.869238 
L 596.485636 626.869238 
" style="fill:none;stroke:#1f77b4;stroke-linecap:square;stroke-width:1.5;"/>
   </g>
   <g id="line2d_14">
    <path clip-path="url(#p3c076edf20)" d="M 110.518364 578.544641 
L 144.147299 578.546504 
L 207.711818 578.501726 
L 208.294979 575.958337 
L 218.014324 531.643954 
L 225.012253 499.389864 
L 228.316831 483.113653 
L 230.84386 469.56297 
L 232.982116 456.866872 
L 234.925985 443.892522 
L 236.675468 430.620933 
L 238.230563 417.178496 
L 239.785658 401.80812 
L 241.340753 384.124156 
L 242.895849 363.773491 
L 244.450944 340.53225 
L 246.200426 311.011064 
L 246.977974 298.824443 
L 248.921843 270.032548 
L 252.809581 211.332091 
L 254.364676 191.417266 
L 255.725385 176.844956 
L 256.891706 166.669063 
L 257.863641 159.826258 
L 258.835575 154.416751 
L 259.80751 150.356321 
L 260.585057 148.01128 
L 261.362605 146.408866 
L 261.945766 145.660479 
L 262.528927 145.274719 
L 263.112087 145.228882 
L 263.695248 145.501134 
L 264.278409 146.070644 
L 265.055956 147.258382 
L 265.833504 148.895729 
L 266.805439 151.513416 
L 267.97176 155.398311 
L 269.332468 160.81808 
L 270.887564 167.997425 
L 272.831433 178.168359 
L 275.164076 191.716473 
L 278.079879 210.08066 
L 282.356391 238.601105 
L 292.658897 307.797054 
L 297.324183 337.345774 
L 301.600695 363.002179 
L 305.68282 386.178586 
L 309.959332 409.154407 
L 314.430231 431.92998 
L 319.484291 456.50546 
L 326.287833 488.417413 
L 333.285761 520.267622 
L 337.367887 537.886071 
L 340.478077 550.364016 
L 343.199494 560.35249 
L 345.532137 568.106226 
L 347.670393 574.517208 
L 349.808649 580.261036 
L 351.946905 585.364182 
L 354.085161 589.871635 
L 356.223417 593.838564 
L 358.361673 597.323463 
L 360.499929 600.383423 
L 362.638185 603.071401 
L 364.970828 605.63526 
L 367.303471 607.867067 
L 369.8305 609.963924 
L 372.35753 611.775701 
L 375.078947 613.45614 
L 377.994751 614.993351 
L 381.104941 616.381399 
L 384.409519 617.619248 
L 388.10287 618.76445 
L 392.184995 619.791612 
L 396.655894 620.68532 
L 401.709953 621.464564 
L 407.347174 622.107406 
L 413.956329 622.627739 
L 421.537418 622.990934 
L 430.284829 623.180852 
L 440.587335 623.175863 
L 452.833711 622.939945 
L 467.412729 622.429243 
L 484.907551 621.585726 
L 505.901337 620.342834 
L 531.366022 618.604606 
L 563.439862 616.181637 
L 596.485636 613.523647 
L 596.485636 613.523647 
" style="fill:none;stroke:#ff7f0e;stroke-linecap:square;stroke-width:1.5;"/>
   </g>
   <g id="line2d_15">
    <path clip-path="url(#p3c076edf20)" d="M 110.518364 578.544641 
L 140.842721 578.533388 
L 207.711818 578.504217 
L 208.294979 575.960991 
L 222.485223 510.020937 
L 225.012253 496.8772 
L 227.150509 484.525665 
L 228.899991 473.081482 
L 230.455087 461.432797 
L 231.815795 449.685611 
L 233.176503 436.039762 
L 234.537212 419.996374 
L 235.89792 401.042583 
L 237.258628 378.783776 
L 238.813724 349.274164 
L 240.95198 303.707674 
L 243.284623 254.95771 
L 244.645331 231.071649 
L 245.811652 214.617618 
L 246.5892 206.041861 
L 247.366748 202.515559 
L 247.949908 200.799374 
L 248.533069 199.855838 
L 248.921843 199.641589 
L 249.310617 199.747389 
L 249.699391 200.162267 
L 250.088164 200.874721 
L 250.671325 202.475331 
L 251.448873 205.538638 
L 252.22642 209.574196 
L 253.198355 215.838424 
L 254.364676 224.902324 
L 255.725385 237.22893 
L 257.474867 255.1718 
L 260.001897 283.699764 
L 268.166147 377.906845 
L 270.887564 406.062933 
L 273.414593 430.073148 
L 275.941623 452.058869 
L 278.468653 472.185681 
L 280.995683 490.641551 
L 283.522713 507.534735 
L 285.855356 521.728692 
L 287.993612 533.491003 
L 290.131868 543.998655 
L 292.075737 552.451408 
L 294.019606 559.893442 
L 295.963475 566.397945 
L 297.712957 571.528729 
L 299.656826 576.519617 
L 301.600695 580.858799 
L 303.544564 584.636616 
L 305.488433 587.93244 
L 307.432303 590.814583 
L 309.570559 593.576296 
L 311.708815 595.972775 
L 314.041457 598.234008 
L 316.3741 600.183092 
L 318.90113 601.997557 
L 321.622547 603.661279 
L 324.538351 605.165091 
L 327.648541 606.505546 
L 330.953119 607.683657 
L 334.64647 608.754425 
L 338.728595 609.692628 
L 343.199494 610.482827 
L 348.253553 611.138856 
L 353.890774 611.637604 
L 360.305542 611.974239 
L 367.692244 612.130585 
L 376.245268 612.081575 
L 386.353388 611.793174 
L 398.599763 611.210136 
L 413.761942 610.253221 
L 433.39502 608.778745 
L 461.969895 606.390008 
L 580.54591 596.263527 
L 596.485636 595.01284 
L 596.485636 595.01284 
" style="fill:none;stroke:#2ca02c;stroke-linecap:square;stroke-width:1.5;"/>
   </g>
   <g id="line2d_16">
    <path clip-path="url(#p3c076edf20)" d="M 110.518364 578.544641 
L 141.037108 578.529906 
L 207.711818 578.520951 
L 208.294979 575.977784 
L 219.56942 523.498241 
L 222.290836 509.542842 
L 224.234705 498.504958 
L 225.984188 487.295257 
L 227.539283 475.809142 
L 228.899991 464.103322 
L 230.2607 450.334671 
L 231.621408 433.971806 
L 232.982116 414.630755 
L 234.537212 389.085729 
L 238.036176 329.823057 
L 239.008111 317.100181 
L 239.980045 307.304812 
L 240.757593 301.743451 
L 241.340753 298.907732 
L 241.923914 297.186478 
L 242.312688 296.635388 
L 242.701462 296.541458 
L 243.090236 296.885211 
L 243.479009 297.645586 
L 244.06217 299.518391 
L 244.645331 302.199873 
L 245.422879 306.893303 
L 246.394813 314.285884 
L 246.783587 318.679503 
L 249.11623 351.618296 
L 253.003968 406.477359 
L 255.142224 433.26121 
L 257.086093 454.772932 
L 258.835575 471.857786 
L 260.585057 486.967721 
L 262.33454 500.300216 
L 264.084022 512.023265 
L 265.833504 522.27504 
L 267.582986 531.184572 
L 269.332468 538.886649 
L 271.081951 545.522607 
L 272.831433 551.232804 
L 274.580915 556.148565 
L 276.330397 560.387277 
L 278.079879 564.050744 
L 279.829361 567.225672 
L 281.773231 570.268903 
L 283.7171 572.88239 
L 285.660969 575.134675 
L 287.799225 577.261977 
L 289.937481 579.081567 
L 292.270124 580.773908 
L 294.797153 582.321177 
L 297.51857 583.713683 
L 300.434374 584.948416 
L 303.544564 586.02756 
L 307.043529 587.005776 
L 310.931267 587.860296 
L 315.402166 588.607397 
L 320.456225 589.220035 
L 326.287833 589.698623 
L 333.285761 590.038753 
L 341.644399 590.210938 
L 351.946905 590.189629 
L 365.165215 589.926986 
L 383.243197 589.329534 
L 412.984394 588.094244 
L 482.769295 585.159442 
L 521.452289 583.787488 
L 559.746511 582.652499 
L 596.485636 581.761539 
L 596.485636 581.761539 
" style="fill:none;stroke:#d62728;stroke-linecap:square;stroke-width:1.5;"/>
   </g>
   <g id="line2d_17">
    <path clip-path="url(#p3c076edf20)" d="M 110.518364 578.544641 
L 145.508007 578.533137 
L 207.711818 578.53453 
L 208.294979 575.991209 
L 218.986259 526.172752 
L 221.902063 511.33566 
L 224.040319 499.362009 
L 225.984188 487.218997 
L 227.73367 474.935893 
L 229.677539 459.626344 
L 234.342825 421.625394 
L 235.314759 415.758498 
L 236.092307 412.096596 
L 236.869855 409.442574 
L 237.453015 408.129046 
L 238.036176 407.385865 
L 238.42495 407.195689 
L 238.813724 407.238233 
L 239.202497 407.501563 
L 239.785658 408.28105 
L 240.368819 409.477977 
L 241.146367 411.633447 
L 242.118301 415.052784 
L 243.479009 420.78321 
L 246.006039 432.69913 
L 246.5892 435.619335 
L 248.727456 454.569135 
L 250.671325 469.848999 
L 252.420807 481.936912 
L 254.170289 492.513903 
L 255.919772 501.697805 
L 257.669254 509.626882 
L 259.418736 516.446535 
L 261.168218 522.300989 
L 262.9177 527.326575 
L 264.667183 531.647039 
L 266.416665 535.371238 
L 268.166147 538.592802 
L 270.110016 541.678844 
L 272.053885 544.332446 
L 273.997754 546.627582 
L 276.13601 548.809838 
L 278.468653 550.854569 
L 280.995683 552.748691 
L 283.7171 554.488456 
L 286.632903 556.0771 
L 289.743094 557.52266 
L 293.242058 558.907324 
L 297.324183 560.272207 
L 301.795082 561.53085 
L 307.043529 562.772327 
L 313.069523 563.965776 
L 320.261839 565.155758 
L 328.814863 566.335306 
L 338.922982 567.498578 
L 351.169357 568.675069 
L 365.748375 569.842726 
L 382.854423 570.982489 
L 402.681888 572.075747 
L 425.619543 573.112165 
L 451.861776 574.070622 
L 482.186134 574.949867 
L 517.370164 575.74063 
L 558.580189 576.437147 
L 596.485636 576.917803 
L 596.485636 576.917803 
" style="fill:none;stroke:#9467bd;stroke-linecap:square;stroke-width:1.5;"/>
   </g>
   <g id="patch_3">
    <path d="M 86.22 652.9752 
L 86.22 88.0416 
" style="fill:none;stroke:#000000;stroke-linecap:square;stroke-linejoin:miter;stroke-width:0.8;"/>
   </g>
   <g id="patch_4">
    <path d="M 620.784 652.9752 
L 620.784 88.0416 
" style="fill:none;stroke:#000000;stroke-linecap:square;stroke-linejoin:miter;stroke-width:0.8;"/>
   </g>
   <g id="patch_5">
    <path d="M 86.22 652.9752 
L 620.784 652.9752 
" style="fill:none;stroke:#000000;stroke-linecap:square;stroke-linejoin:miter;stroke-width:0.8;"/>
   </g>
   <g id="patch_6">
    <path d="M 86.22 88.0416 
L 620.784 88.0416 
" style="fill:none;stroke:#000000;stroke-linecap:square;stroke-linejoin:miter;stroke-width:0.8;"/>
   </g>
   <g id="text_15">
    <!-- Shape of action potential for 5 temperatures between 15 and 45 -->
    <defs>
     <path d="M 53.515625 70.515625 
L 53.515625 60.890625 
Q 47.90625 63.578125 42.921875 64.890625 
Q 37.9375 66.21875 33.296875 66.21875 
Q 25.25 66.21875 20.875 63.09375 
Q 16.5 59.96875 16.5 54.203125 
Q 16.5 49.359375 19.40625 46.890625 
Q 22.3125 44.4375 30.421875 42.921875 
L 36.375 41.703125 
Q 47.40625 39.59375 52.65625 34.296875 
Q 57.90625 29 57.90625 20.125 
Q 57.90625 9.515625 50.796875 4.046875 
Q 43.703125 -1.421875 29.984375 -1.421875 
Q 24.8125 -1.421875 18.96875 -0.25 
Q 13.140625 0.921875 6.890625 3.21875 
L 6.890625 13.375 
Q 12.890625 10.015625 18.65625 8.296875 
Q 24.421875 6.59375 29.984375 6.59375 
Q 38.421875 6.59375 43.015625 9.90625 
Q 47.609375 13.234375 47.609375 19.390625 
Q 47.609375 24.75 44.3125 27.78125 
Q 41.015625 30.8125 33.5 32.328125 
L 27.484375 33.5 
Q 16.453125 35.6875 11.515625 40.375 
Q 6.59375 45.0625 6.59375 53.421875 
Q 6.59375 63.09375 13.40625 68.65625 
Q 20.21875 74.21875 32.171875 74.21875 
Q 37.3125 74.21875 42.625 73.28125 
Q 47.953125 72.359375 53.515625 70.515625 
z
" id="DejaVuSans-83"/>
     <path d="M 54.890625 33.015625 
L 54.890625 0 
L 45.90625 0 
L 45.90625 32.71875 
Q 45.90625 40.484375 42.875 44.328125 
Q 39.84375 48.1875 33.796875 48.1875 
Q 26.515625 48.1875 22.3125 43.546875 
Q 18.109375 38.921875 18.109375 30.90625 
L 18.109375 0 
L 9.078125 0 
L 9.078125 75.984375 
L 18.109375 75.984375 
L 18.109375 46.1875 
Q 21.34375 51.125 25.703125 53.5625 
Q 30.078125 56 35.796875 56 
Q 45.21875 56 50.046875 50.171875 
Q 54.890625 44.34375 54.890625 33.015625 
z
" id="DejaVuSans-104"/>
     <path d="M 18.109375 8.203125 
L 18.109375 -20.796875 
L 9.078125 -20.796875 
L 9.078125 54.6875 
L 18.109375 54.6875 
L 18.109375 46.390625 
Q 20.953125 51.265625 25.265625 53.625 
Q 29.59375 56 35.59375 56 
Q 45.5625 56 51.78125 48.09375 
Q 58.015625 40.1875 58.015625 27.296875 
Q 58.015625 14.40625 51.78125 6.484375 
Q 45.5625 -1.421875 35.59375 -1.421875 
Q 29.59375 -1.421875 25.265625 0.953125 
Q 20.953125 3.328125 18.109375 8.203125 
z
M 48.6875 27.296875 
Q 48.6875 37.203125 44.609375 42.84375 
Q 40.53125 48.484375 33.40625 48.484375 
Q 26.265625 48.484375 22.1875 42.84375 
Q 18.109375 37.203125 18.109375 27.296875 
Q 18.109375 17.390625 22.1875 11.75 
Q 26.265625 6.109375 33.40625 6.109375 
Q 40.53125 6.109375 44.609375 11.75 
Q 48.6875 17.390625 48.6875 27.296875 
z
" id="DejaVuSans-112"/>
     <path d="M 8.5 21.578125 
L 8.5 54.6875 
L 17.484375 54.6875 
L 17.484375 21.921875 
Q 17.484375 14.15625 20.5 10.265625 
Q 23.53125 6.390625 29.59375 6.390625 
Q 36.859375 6.390625 41.078125 11.03125 
Q 45.3125 15.671875 45.3125 23.6875 
L 45.3125 54.6875 
L 54.296875 54.6875 
L 54.296875 0 
L 45.3125 0 
L 45.3125 8.40625 
Q 42.046875 3.421875 37.71875 1 
Q 33.40625 -1.421875 27.6875 -1.421875 
Q 18.265625 -1.421875 13.375 4.4375 
Q 8.5 10.296875 8.5 21.578125 
z
M 31.109375 56 
z
" id="DejaVuSans-117"/>
     <path d="M 48.6875 27.296875 
Q 48.6875 37.203125 44.609375 42.84375 
Q 40.53125 48.484375 33.40625 48.484375 
Q 26.265625 48.484375 22.1875 42.84375 
Q 18.109375 37.203125 18.109375 27.296875 
Q 18.109375 17.390625 22.1875 11.75 
Q 26.265625 6.109375 33.40625 6.109375 
Q 40.53125 6.109375 44.609375 11.75 
Q 48.6875 17.390625 48.6875 27.296875 
z
M 18.109375 46.390625 
Q 20.953125 51.265625 25.265625 53.625 
Q 29.59375 56 35.59375 56 
Q 45.5625 56 51.78125 48.09375 
Q 58.015625 40.1875 58.015625 27.296875 
Q 58.015625 14.40625 51.78125 6.484375 
Q 45.5625 -1.421875 35.59375 -1.421875 
Q 29.59375 -1.421875 25.265625 0.953125 
Q 20.953125 3.328125 18.109375 8.203125 
L 18.109375 0 
L 9.078125 0 
L 9.078125 75.984375 
L 18.109375 75.984375 
z
" id="DejaVuSans-98"/>
     <path d="M 4.203125 54.6875 
L 13.1875 54.6875 
L 24.421875 12.015625 
L 35.59375 54.6875 
L 46.1875 54.6875 
L 57.421875 12.015625 
L 68.609375 54.6875 
L 77.59375 54.6875 
L 63.28125 0 
L 52.6875 0 
L 40.921875 44.828125 
L 29.109375 0 
L 18.5 0 
z
" id="DejaVuSans-119"/>
    </defs>
    <g transform="translate(159.160125 82.0416)scale(0.12 -0.12)">
     <use xlink:href="#DejaVuSans-83"/>
     <use x="63.476562" xlink:href="#DejaVuSans-104"/>
     <use x="126.855469" xlink:href="#DejaVuSans-97"/>
     <use x="188.134766" xlink:href="#DejaVuSans-112"/>
     <use x="251.611328" xlink:href="#DejaVuSans-101"/>
     <use x="313.134766" xlink:href="#DejaVuSans-32"/>
     <use x="344.921875" xlink:href="#DejaVuSans-111"/>
     <use x="406.103516" xlink:href="#DejaVuSans-102"/>
     <use x="441.308594" xlink:href="#DejaVuSans-32"/>
     <use x="473.095703" xlink:href="#DejaVuSans-97"/>
     <use x="534.375" xlink:href="#DejaVuSans-99"/>
     <use x="589.355469" xlink:href="#DejaVuSans-116"/>
     <use x="628.564453" xlink:href="#DejaVuSans-105"/>
     <use x="656.347656" xlink:href="#DejaVuSans-111"/>
     <use x="717.529297" xlink:href="#DejaVuSans-110"/>
     <use x="780.908203" xlink:href="#DejaVuSans-32"/>
     <use x="812.695312" xlink:href="#DejaVuSans-112"/>
     <use x="876.171875" xlink:href="#DejaVuSans-111"/>
     <use x="937.353516" xlink:href="#DejaVuSans-116"/>
     <use x="976.5625" xlink:href="#DejaVuSans-101"/>
     <use x="1038.085938" xlink:href="#DejaVuSans-110"/>
     <use x="1101.464844" xlink:href="#DejaVuSans-116"/>
     <use x="1140.673828" xlink:href="#DejaVuSans-105"/>
     <use x="1168.457031" xlink:href="#DejaVuSans-97"/>
     <use x="1229.736328" xlink:href="#DejaVuSans-108"/>
     <use x="1257.519531" xlink:href="#DejaVuSans-32"/>
     <use x="1289.306641" xlink:href="#DejaVuSans-102"/>
     <use x="1324.511719" xlink:href="#DejaVuSans-111"/>
     <use x="1385.693359" xlink:href="#DejaVuSans-114"/>
     <use x="1426.806641" xlink:href="#DejaVuSans-32"/>
     <use x="1458.59375" xlink:href="#DejaVuSans-53"/>
     <use x="1522.216797" xlink:href="#DejaVuSans-32"/>
     <use x="1554.003906" xlink:href="#DejaVuSans-116"/>
     <use x="1593.212891" xlink:href="#DejaVuSans-101"/>
     <use x="1654.736328" xlink:href="#DejaVuSans-109"/>
     <use x="1752.148438" xlink:href="#DejaVuSans-112"/>
     <use x="1815.625" xlink:href="#DejaVuSans-101"/>
     <use x="1877.148438" xlink:href="#DejaVuSans-114"/>
     <use x="1918.261719" xlink:href="#DejaVuSans-97"/>
     <use x="1979.541016" xlink:href="#DejaVuSans-116"/>
     <use x="2018.75" xlink:href="#DejaVuSans-117"/>
     <use x="2082.128906" xlink:href="#DejaVuSans-114"/>
     <use x="2123.210938" xlink:href="#DejaVuSans-101"/>
     <use x="2184.734375" xlink:href="#DejaVuSans-115"/>
     <use x="2236.833984" xlink:href="#DejaVuSans-32"/>
     <use x="2268.621094" xlink:href="#DejaVuSans-98"/>
     <use x="2332.097656" xlink:href="#DejaVuSans-101"/>
     <use x="2393.621094" xlink:href="#DejaVuSans-116"/>
     <use x="2432.830078" xlink:href="#DejaVuSans-119"/>
     <use x="2514.617188" xlink:href="#DejaVuSans-101"/>
     <use x="2576.140625" xlink:href="#DejaVuSans-101"/>
     <use x="2637.664062" xlink:href="#DejaVuSans-110"/>
     <use x="2701.042969" xlink:href="#DejaVuSans-32"/>
     <use x="2732.830078" xlink:href="#DejaVuSans-49"/>
     <use x="2796.453125" xlink:href="#DejaVuSans-53"/>
     <use x="2860.076172" xlink:href="#DejaVuSans-32"/>
     <use x="2891.863281" xlink:href="#DejaVuSans-97"/>
     <use x="2953.142578" xlink:href="#DejaVuSans-110"/>
     <use x="3016.521484" xlink:href="#DejaVuSans-100"/>
     <use x="3079.998047" xlink:href="#DejaVuSans-32"/>
     <use x="3111.785156" xlink:href="#DejaVuSans-52"/>
     <use x="3175.408203" xlink:href="#DejaVuSans-53"/>
    </g>
   </g>
   <g id="legend_1">
    <g id="patch_7">
     <path d="M 515.866812 169.432225 
L 613.784 169.432225 
Q 615.784 169.432225 615.784 167.432225 
L 615.784 95.0416 
Q 615.784 93.0416 613.784 93.0416 
L 515.866812 93.0416 
Q 513.866812 93.0416 513.866812 95.0416 
L 513.866812 167.432225 
Q 513.866812 169.432225 515.866812 169.432225 
z
" style="fill:#ffffff;opacity:0.8;stroke:#cccccc;stroke-linejoin:miter;"/>
    </g>
    <g id="line2d_18">
     <path d="M 517.866812 101.140038 
L 537.866812 101.140038 
" style="fill:none;stroke:#1f77b4;stroke-linecap:square;stroke-width:1.5;"/>
    </g>
    <g id="line2d_19"/>
    <g id="text_16">
     <!-- 15.0 degrees -->
     <defs>
      <path d="M 45.40625 27.984375 
Q 45.40625 37.75 41.375 43.109375 
Q 37.359375 48.484375 30.078125 48.484375 
Q 22.859375 48.484375 18.828125 43.109375 
Q 14.796875 37.75 14.796875 27.984375 
Q 14.796875 18.265625 18.828125 12.890625 
Q 22.859375 7.515625 30.078125 7.515625 
Q 37.359375 7.515625 41.375 12.890625 
Q 45.40625 18.265625 45.40625 27.984375 
z
M 54.390625 6.78125 
Q 54.390625 -7.171875 48.1875 -13.984375 
Q 42 -20.796875 29.203125 -20.796875 
Q 24.46875 -20.796875 20.265625 -20.09375 
Q 16.0625 -19.390625 12.109375 -17.921875 
L 12.109375 -9.1875 
Q 16.0625 -11.328125 19.921875 -12.34375 
Q 23.78125 -13.375 27.78125 -13.375 
Q 36.625 -13.375 41.015625 -8.765625 
Q 45.40625 -4.15625 45.40625 5.171875 
L 45.40625 9.625 
Q 42.625 4.78125 38.28125 2.390625 
Q 33.9375 0 27.875 0 
Q 17.828125 0 11.671875 7.65625 
Q 5.515625 15.328125 5.515625 27.984375 
Q 5.515625 40.671875 11.671875 48.328125 
Q 17.828125 56 27.875 56 
Q 33.9375 56 38.28125 53.609375 
Q 42.625 51.21875 45.40625 46.390625 
L 45.40625 54.6875 
L 54.390625 54.6875 
z
" id="DejaVuSans-103"/>
     </defs>
     <g transform="translate(545.866812 104.640038)scale(0.1 -0.1)">
      <use xlink:href="#DejaVuSans-49"/>
      <use x="63.623047" xlink:href="#DejaVuSans-53"/>
      <use x="127.246094" xlink:href="#DejaVuSans-46"/>
      <use x="159.033203" xlink:href="#DejaVuSans-48"/>
      <use x="222.65625" xlink:href="#DejaVuSans-32"/>
      <use x="254.443359" xlink:href="#DejaVuSans-100"/>
      <use x="317.919922" xlink:href="#DejaVuSans-101"/>
      <use x="379.443359" xlink:href="#DejaVuSans-103"/>
      <use x="442.919922" xlink:href="#DejaVuSans-114"/>
      <use x="484.001953" xlink:href="#DejaVuSans-101"/>
      <use x="545.525391" xlink:href="#DejaVuSans-101"/>
      <use x="607.048828" xlink:href="#DejaVuSans-115"/>
     </g>
    </g>
    <g id="line2d_20">
     <path d="M 517.866812 115.818163 
L 537.866812 115.818163 
" style="fill:none;stroke:#ff7f0e;stroke-linecap:square;stroke-width:1.5;"/>
    </g>
    <g id="line2d_21"/>
    <g id="text_17">
     <!-- 22.5 degrees -->
     <g transform="translate(545.866812 119.318163)scale(0.1 -0.1)">
      <use xlink:href="#DejaVuSans-50"/>
      <use x="63.623047" xlink:href="#DejaVuSans-50"/>
      <use x="127.246094" xlink:href="#DejaVuSans-46"/>
      <use x="159.033203" xlink:href="#DejaVuSans-53"/>
      <use x="222.65625" xlink:href="#DejaVuSans-32"/>
      <use x="254.443359" xlink:href="#DejaVuSans-100"/>
      <use x="317.919922" xlink:href="#DejaVuSans-101"/>
      <use x="379.443359" xlink:href="#DejaVuSans-103"/>
      <use x="442.919922" xlink:href="#DejaVuSans-114"/>
      <use x="484.001953" xlink:href="#DejaVuSans-101"/>
      <use x="545.525391" xlink:href="#DejaVuSans-101"/>
      <use x="607.048828" xlink:href="#DejaVuSans-115"/>
     </g>
    </g>
    <g id="line2d_22">
     <path d="M 517.866812 130.496288 
L 537.866812 130.496288 
" style="fill:none;stroke:#2ca02c;stroke-linecap:square;stroke-width:1.5;"/>
    </g>
    <g id="line2d_23"/>
    <g id="text_18">
     <!-- 30.0 degrees -->
     <defs>
      <path d="M 40.578125 39.3125 
Q 47.65625 37.796875 51.625 33 
Q 55.609375 28.21875 55.609375 21.1875 
Q 55.609375 10.40625 48.1875 4.484375 
Q 40.765625 -1.421875 27.09375 -1.421875 
Q 22.515625 -1.421875 17.65625 -0.515625 
Q 12.796875 0.390625 7.625 2.203125 
L 7.625 11.71875 
Q 11.71875 9.328125 16.59375 8.109375 
Q 21.484375 6.890625 26.8125 6.890625 
Q 36.078125 6.890625 40.9375 10.546875 
Q 45.796875 14.203125 45.796875 21.1875 
Q 45.796875 27.640625 41.28125 31.265625 
Q 36.765625 34.90625 28.71875 34.90625 
L 20.21875 34.90625 
L 20.21875 43.015625 
L 29.109375 43.015625 
Q 36.375 43.015625 40.234375 45.921875 
Q 44.09375 48.828125 44.09375 54.296875 
Q 44.09375 59.90625 40.109375 62.90625 
Q 36.140625 65.921875 28.71875 65.921875 
Q 24.65625 65.921875 20.015625 65.03125 
Q 15.375 64.15625 9.8125 62.3125 
L 9.8125 71.09375 
Q 15.4375 72.65625 20.34375 73.4375 
Q 25.25 74.21875 29.59375 74.21875 
Q 40.828125 74.21875 47.359375 69.109375 
Q 53.90625 64.015625 53.90625 55.328125 
Q 53.90625 49.265625 50.4375 45.09375 
Q 46.96875 40.921875 40.578125 39.3125 
z
" id="DejaVuSans-51"/>
     </defs>
     <g transform="translate(545.866812 133.996288)scale(0.1 -0.1)">
      <use xlink:href="#DejaVuSans-51"/>
      <use x="63.623047" xlink:href="#DejaVuSans-48"/>
      <use x="127.246094" xlink:href="#DejaVuSans-46"/>
      <use x="159.033203" xlink:href="#DejaVuSans-48"/>
      <use x="222.65625" xlink:href="#DejaVuSans-32"/>
      <use x="254.443359" xlink:href="#DejaVuSans-100"/>
      <use x="317.919922" xlink:href="#DejaVuSans-101"/>
      <use x="379.443359" xlink:href="#DejaVuSans-103"/>
      <use x="442.919922" xlink:href="#DejaVuSans-114"/>
      <use x="484.001953" xlink:href="#DejaVuSans-101"/>
      <use x="545.525391" xlink:href="#DejaVuSans-101"/>
      <use x="607.048828" xlink:href="#DejaVuSans-115"/>
     </g>
    </g>
    <g id="line2d_24">
     <path d="M 517.866812 145.174413 
L 537.866812 145.174413 
" style="fill:none;stroke:#d62728;stroke-linecap:square;stroke-width:1.5;"/>
    </g>
    <g id="line2d_25"/>
    <g id="text_19">
     <!-- 37.5 degrees -->
     <defs>
      <path d="M 8.203125 72.90625 
L 55.078125 72.90625 
L 55.078125 68.703125 
L 28.609375 0 
L 18.3125 0 
L 43.21875 64.59375 
L 8.203125 64.59375 
z
" id="DejaVuSans-55"/>
     </defs>
     <g transform="translate(545.866812 148.674413)scale(0.1 -0.1)">
      <use xlink:href="#DejaVuSans-51"/>
      <use x="63.623047" xlink:href="#DejaVuSans-55"/>
      <use x="127.246094" xlink:href="#DejaVuSans-46"/>
      <use x="159.033203" xlink:href="#DejaVuSans-53"/>
      <use x="222.65625" xlink:href="#DejaVuSans-32"/>
      <use x="254.443359" xlink:href="#DejaVuSans-100"/>
      <use x="317.919922" xlink:href="#DejaVuSans-101"/>
      <use x="379.443359" xlink:href="#DejaVuSans-103"/>
      <use x="442.919922" xlink:href="#DejaVuSans-114"/>
      <use x="484.001953" xlink:href="#DejaVuSans-101"/>
      <use x="545.525391" xlink:href="#DejaVuSans-101"/>
      <use x="607.048828" xlink:href="#DejaVuSans-115"/>
     </g>
    </g>
    <g id="line2d_26">
     <path d="M 517.866812 159.852538 
L 537.866812 159.852538 
" style="fill:none;stroke:#9467bd;stroke-linecap:square;stroke-width:1.5;"/>
    </g>
    <g id="line2d_27"/>
    <g id="text_20">
     <!-- 45.0 degrees -->
     <g transform="translate(545.866812 163.352538)scale(0.1 -0.1)">
      <use xlink:href="#DejaVuSans-52"/>
      <use x="63.623047" xlink:href="#DejaVuSans-53"/>
      <use x="127.246094" xlink:href="#DejaVuSans-46"/>
      <use x="159.033203" xlink:href="#DejaVuSans-48"/>
      <use x="222.65625" xlink:href="#DejaVuSans-32"/>
      <use x="254.443359" xlink:href="#DejaVuSans-100"/>
      <use x="317.919922" xlink:href="#DejaVuSans-101"/>
      <use x="379.443359" xlink:href="#DejaVuSans-103"/>
      <use x="442.919922" xlink:href="#DejaVuSans-114"/>
      <use x="484.001953" xlink:href="#DejaVuSans-101"/>
      <use x="545.525391" xlink:href="#DejaVuSans-101"/>
      <use x="607.048828" xlink:href="#DejaVuSans-115"/>
     </g>
    </g>
   </g>
  </g>
 </g>
 <defs>
  <clipPath id="p3c076edf20">
   <rect height="564.9336" width="534.564" x="86.22" y="88.0416"/>
  </clipPath>
 </defs>
</svg>
